<svg width="99" height="96" viewBox="0 0 99 96" fill="none" xmlns="http://www.w3.org/2000/svg">
<path d="M23.4043 4.85621C20.9432 4.85621 18.9387 6.85791 18.9387 9.32108V25.4968C18.9387 26.3111 19.6002 26.9726 20.4157 26.9726C21.231 26.9726 21.8915 26.3111 21.8915 25.4968V9.32108C21.8915 8.48869 22.5719 7.809 23.4043 7.809H53.5539C54.3893 7.809 55.0657 8.48869 55.0657 9.32108V32.1307C50.8599 37.189 50.8448 44.5294 55.0657 49.6116V50.0971C55.0657 50.9305 54.3891 51.6089 53.5539 51.6089H23.4043C22.5719 51.6089 21.8915 50.9305 21.8915 50.0971V31.4021C21.8915 30.5846 21.231 29.9251 20.4157 29.9251C19.6002 29.9251 18.9387 30.5846 18.9387 31.4021V50.0971C18.9387 52.5602 20.9432 54.5617 23.4043 54.5617H53.5539C55.3455 54.5617 56.8924 53.5024 57.6017 51.9796C68.2387 59.6497 82.8208 49.2076 78.5859 36.5242C78.3281 35.7516 77.4918 35.3352 76.7172 35.593C75.9439 35.8506 75.5262 36.6871 75.784 37.4604C78.1114 44.4164 72.9093 51.6089 65.5978 51.6089C56.1608 51.6089 51.1886 40.0817 58.0195 33.2698C59.9621 31.331 62.6429 30.13 65.5978 30.13C68.3838 30.13 71.0227 31.1931 73.0323 33.1199C73.6219 33.6834 74.5562 33.6653 75.1197 33.0769C75.6843 32.4883 75.6643 31.5531 75.0767 30.9885C70.3903 26.4927 63.2855 25.9532 58.0195 29.4726V9.32082C58.0195 6.85765 56.017 4.85596 53.5539 4.85596H23.4043V4.85621Z" fill="#FF5700"/>
<path d="M37.6886 20.041H49.5458C51.5263 20.041 53.1392 18.4292 53.1392 16.4477V14.0894C53.1392 12.1079 51.5263 10.4971 49.5458 10.4971H37.6886C35.7082 10.4971 34.0963 12.1079 34.0963 14.0894V16.4477C34.0963 18.4292 35.7082 20.041 37.6886 20.041ZM37.0491 14.0894C37.0491 13.7428 37.342 13.4488 37.6886 13.4488H49.5458C49.8935 13.4488 50.1864 13.7428 50.1864 14.0894V16.4477C50.1864 16.7943 49.8935 17.0872 49.5458 17.0872H37.6886C37.342 17.0872 37.0491 16.7943 37.0491 16.4477V14.0894Z" fill="#FF5700"/>
<path d="M25.2971 13.9826H31.0476C31.8631 13.9826 32.5247 13.3211 32.5247 12.5058C32.5247 11.6905 31.8631 11.0298 31.0476 11.0298H25.2971C24.4815 11.0298 23.821 11.6903 23.821 12.5058C23.821 13.3213 24.4815 13.9826 25.2971 13.9826Z" fill="#FF5700"/>
<path d="M25.2971 19.5075H31.0476C31.8631 19.5075 32.5247 18.846 32.5247 18.0304C32.5247 17.2152 31.8631 16.5547 31.0476 16.5547H25.2971C24.4815 16.5547 23.821 17.2152 23.821 18.0304C23.821 18.846 24.4815 19.5075 25.2971 19.5075Z" fill="#FF5700"/>
<path d="M34.0963 30.8889C34.0963 32.8694 35.7082 34.4812 37.6886 34.4812H43.926C45.9075 34.4812 47.5193 32.8694 47.5193 30.8889V28.5296C47.5193 26.5491 45.9075 24.9373 43.926 24.9373H37.6886C35.7082 24.9373 34.0963 26.5491 34.0963 28.5296V30.8889ZM37.0491 28.5296C37.0491 28.184 37.342 27.8901 37.6886 27.8901H43.926C44.2726 27.8901 44.5655 28.184 44.5655 28.5296V30.8889C44.5655 31.2355 44.2726 31.5284 43.926 31.5284H37.6886C37.342 31.5284 37.0491 31.2355 37.0491 30.8889V28.5296Z" fill="#FF5700"/>
<path d="M25.2971 28.4235H29.1211C29.9364 28.4235 30.5979 27.763 30.5979 26.9468C30.5979 26.1312 29.9364 25.4697 29.1211 25.4697H25.2971C24.4815 25.4697 23.821 26.1312 23.821 26.9468C23.821 27.763 24.4815 28.4235 25.2971 28.4235Z" fill="#FF5700"/>
<path d="M25.2971 33.9474H31.0476C31.8631 33.9474 32.5247 33.2869 32.5247 32.4716C32.5247 31.6561 31.8631 30.9956 31.0476 30.9956H25.2971C24.4815 30.9956 23.821 31.6561 23.821 32.4716C23.821 33.2869 24.4815 33.9474 25.2971 33.9474Z" fill="#FF5700"/>
<path d="M34.0963 45.3298C34.0963 47.3103 35.7082 48.9221 37.6886 48.9221H46.9177C48.8981 48.9221 50.51 47.3103 50.51 45.3298V42.9705C50.51 40.99 48.8981 39.3784 46.9177 39.3784H37.6886C35.7082 39.3784 34.0963 40.99 34.0963 42.9705V45.3298ZM37.0491 42.9705C37.0491 42.6228 37.342 42.3302 37.6886 42.3302H46.9177C47.2635 42.3302 47.5572 42.6228 47.5572 42.9705V45.3288C47.5572 45.6754 47.2635 45.9683 46.9177 45.9683H37.6886C37.342 45.9683 37.0491 45.6754 37.0491 45.3288V42.9705Z" fill="#FF5700"/>
<path d="M25.2971 42.8637H31.0476C31.8631 42.8637 32.5247 42.2032 32.5247 41.3879C32.5247 40.5724 31.8631 39.9111 31.0476 39.9111H25.2971C24.4815 39.9111 23.821 40.5724 23.821 41.3879C23.821 42.2032 24.4815 42.8637 25.2971 42.8637Z" fill="#FF5700"/>
<path d="M25.2971 48.3886H28.5425C29.358 48.3886 30.0185 47.7281 30.0185 46.9128C30.0185 46.0973 29.358 45.4358 28.5425 45.4358H25.2971C24.4815 45.4358 23.821 46.0973 23.821 46.9128C23.821 47.7281 24.4815 48.3886 25.2971 48.3886Z" fill="#FF5700"/>
<path d="M65.5978 48.3059C66.4141 48.3059 67.0746 47.6454 67.0746 46.8299V42.3474H71.5571C72.3726 42.3474 73.0331 41.6858 73.0331 40.8706C73.0331 40.0551 72.3726 39.3946 71.5571 39.3946H67.0746V34.9121C67.0746 34.0955 66.4141 33.436 65.5978 33.436C64.7823 33.436 64.1218 34.0955 64.1218 34.9121V39.3946H59.6393C58.8237 39.3946 58.1632 40.0551 58.1632 40.8706C58.1632 41.6858 58.8237 42.3474 59.6393 42.3474H64.1218V46.8299C64.1218 47.6454 64.7823 48.3059 65.5978 48.3059Z" fill="#FF5700"/>
<path d="M1.47602 39.7251C2.29127 39.7251 2.9528 39.0636 2.9528 38.2491V5.02533C2.9528 3.88213 3.88214 2.95278 5.02535 2.95278H54.8098C55.6254 2.95278 56.2866 2.29126 56.2866 1.476C56.2866 0.661508 55.6251 0 54.8098 0H5.02535C2.25418 0 0 2.25417 0 5.02533V38.2491C0 39.0636 0.661524 39.7251 1.47602 39.7251Z" fill="#FF5700"/>
<path d="M93.2048 0H60.7152C59.9007 0 59.2392 0.661508 59.2392 1.476C59.2392 2.29126 59.9007 2.95278 60.7152 2.95278H93.2048C94.348 2.95278 95.2774 3.88213 95.2774 5.02533V56.2206C93.4077 56.2206 5.33795 56.2206 2.9528 56.2206V44.1547C2.9528 43.3394 2.29127 42.6779 1.47602 42.6779C0.661524 42.6779 0 43.3394 0 44.1547V66.4601C0 69.231 2.25418 71.4854 5.02535 71.4854H40.3007L37.4909 85.4679H31.7422C29.6548 85.4679 27.9529 87.1695 27.9529 89.2579V92.2107C27.9529 94.2981 29.6548 96 31.7422 96H66.488C68.5754 96 70.2773 94.2984 70.2773 92.2107V89.2579C70.2773 87.1695 68.5756 85.4679 66.488 85.4679H60.7392L57.9294 71.4854H93.2048C95.9757 71.4854 98.2301 69.231 98.2301 66.4601C98.2301 65.2701 98.2301 5.63773 98.2301 5.02533C98.2301 2.25417 95.976 0 93.2048 0ZM66.488 88.4204C66.9477 88.4204 67.3245 88.7972 67.3245 89.2577V92.2105C67.3245 92.6712 66.9477 93.047 66.488 93.047H31.7422C31.2825 93.047 30.9057 92.6712 30.9057 92.2105V89.2577C30.9057 88.797 31.2825 88.4204 31.7422 88.4204H66.488ZM40.5025 85.4676L43.3123 71.4852H54.9178L57.7276 85.4676H40.5025ZM95.2774 66.4601C95.2774 67.6043 94.348 68.5334 93.2048 68.5334C92.3125 68.5334 6.99762 68.5334 5.02535 68.5334C3.88214 68.5334 2.9528 67.6041 2.9528 66.4601V59.1747H95.2774V66.4601Z" fill="#FF5700"/>
<path d="M88.0428 67.7162C90.1732 67.7162 91.906 65.9836 91.906 63.853C91.906 61.7223 90.1735 59.9897 88.0428 59.9897C85.9135 59.9897 84.1796 61.7223 84.1796 63.853C84.1796 65.9836 85.9135 67.7162 88.0428 67.7162ZM88.0428 62.9428C88.5455 62.9428 88.9543 63.3516 88.9543 63.8532C88.9543 64.3548 88.5455 64.7636 88.0428 64.7636C87.5412 64.7636 87.1324 64.3548 87.1324 63.8532C87.1324 63.3516 87.5412 62.9428 88.0428 62.9428Z" fill="#FF5700"/>
<path d="M77.9044 67.7162C80.0348 67.7162 81.7694 65.9836 81.7694 63.853C81.7694 61.7236 80.0348 59.9897 77.9044 59.9897C75.7751 59.9897 74.0405 61.7234 74.0405 63.853C74.0405 65.9833 75.7751 67.7162 77.9044 67.7162ZM77.9044 62.9418C78.4071 62.9418 78.8167 63.3516 78.8167 63.8532C78.8167 64.3559 78.4068 64.7636 77.9044 64.7636C77.4028 64.7636 76.993 64.3559 76.993 63.8532C76.993 63.3513 77.4028 62.9418 77.9044 62.9418Z" fill="#FF5700"/>
</svg>
