<svg width="76" height="116" viewBox="0 0 76 116" fill="none" xmlns="http://www.w3.org/2000/svg">
<path d="M71.9492 79.2895H59.3379C54.4349 79.2895 50.446 83.2784 50.446 88.1814C50.446 93.0845 54.4349 97.0733 59.3379 97.0733H68.4627V109.801C68.4627 110.859 67.6022 111.718 66.5451 111.718H5.29024C4.23196 111.718 3.37236 110.858 3.37236 109.801V64.2826C3.96729 64.5155 4.61349 64.6443 5.29024 64.6443H66.5451C67.6022 64.6443 68.4627 65.5048 68.4627 66.5619V73.7691C68.4627 74.6997 69.2167 75.4538 70.1473 75.4538C71.0792 75.4538 71.8332 74.6997 71.8332 73.7691V66.5619C71.8332 64.2343 70.3218 62.2559 68.2307 61.5498V59.3559C68.2307 56.4394 65.8576 54.0666 62.9413 54.0666H61.1383C60.2077 54.0666 59.4536 54.8215 59.4536 55.7524C59.4536 56.6831 60.2077 57.4383 61.1383 57.4383H62.9413C63.9984 57.4383 64.8589 58.2988 64.8589 59.3559V61.2726H55.6193V43.1408C55.6193 41.2172 54.0539 39.6533 52.1316 39.6533H19.7029C17.7793 39.6533 16.2151 41.2172 16.2151 43.1408V61.2726H5.28966C4.23137 61.2726 3.37178 60.4133 3.37178 59.3559C3.37178 58.2985 4.23227 57.4383 5.28966 57.4383H10.6938C11.6247 57.4383 12.3785 56.6831 12.3785 55.7524C12.3785 54.8215 11.6247 54.0666 10.6938 54.0666H5.28966C2.37315 54.0666 0 56.4394 0 59.3559V109.802C0 112.718 2.37315 115.09 5.28966 115.09H66.5445C69.4607 115.09 71.8329 112.717 71.8329 109.802V97.0742H71.9489C73.8725 97.0742 75.4367 95.5088 75.4367 93.5865V82.777C75.437 80.8534 73.8728 79.2895 71.9492 79.2895ZM26.7932 61.2726V52.8944C27.9078 52.2647 28.8267 51.3467 29.4567 50.2311H42.3771C43.008 51.3467 43.926 52.2647 45.0418 52.8944V61.2726H26.7932ZM19.586 43.1411C19.586 43.077 19.6387 43.0254 19.702 43.0254H52.1319C52.1951 43.0254 52.2479 43.077 52.2479 43.1411V61.2729H48.4124V51.8193C48.4124 51.1051 47.9629 50.4694 47.2909 50.2305C46.2371 49.8559 45.4177 49.0362 45.043 47.9815C44.8042 47.3095 44.1673 46.8611 43.4543 46.8611H28.3796C27.6665 46.8611 27.0296 47.3095 26.7908 47.9815C26.4161 49.0362 25.5967 49.8559 24.5429 50.2305C23.871 50.4694 23.4214 51.1051 23.4214 51.8193V61.2729H19.586V43.1411ZM72.0652 93.5868C72.0652 93.65 72.0137 93.7028 71.9492 93.7028H59.3379C56.294 93.7028 53.8177 91.2253 53.8177 88.1814C53.8177 85.1376 56.294 82.6613 59.3379 82.6613H71.9492C72.0137 82.6613 72.0652 82.7129 72.0652 82.7773V93.5868Z" fill="#FF5700"/>
<path d="M59.3472 86.4956H59.3295C58.3977 86.4956 57.6517 87.2509 57.6517 88.1815C57.6517 89.1121 58.4163 89.8674 59.3469 89.8674C60.2775 89.8674 61.0328 89.1121 61.0328 88.1815C61.0328 87.2509 60.2781 86.4956 59.3472 86.4956Z" fill="#FF5700"/>
<path d="M37.7187 54.0668H34.1152C33.1843 54.0668 32.4293 54.8218 32.4293 55.7527C32.4293 56.6833 33.1843 57.4386 34.1152 57.4386H37.7187C38.6493 57.4386 39.4045 56.6833 39.4045 55.7527C39.4045 54.8218 38.6493 54.0668 37.7187 54.0668Z" fill="#FF5700"/>
<path d="M25.1073 34.0175C31.0045 34.0175 35.8011 29.2197 35.8011 23.3225C35.8011 17.4269 31.0045 12.6291 25.1073 12.6291C19.2113 12.6291 14.4135 17.4269 14.4135 23.3225C14.4135 29.2197 19.2113 34.0175 25.1073 34.0175ZM25.1073 16.0008C29.1453 16.0008 32.4302 19.286 32.4302 23.3225C32.4302 27.3606 29.1453 30.6457 25.1073 30.6457C21.0693 30.6457 17.7853 27.3606 17.7853 23.3225C17.7853 19.286 21.0693 16.0008 25.1073 16.0008Z" fill="#FF5700"/>
<path d="M25.1891 25.7895C25.5182 26.1186 25.9501 26.2834 26.3811 26.2834C26.8118 26.2834 27.244 26.1186 27.5727 25.7895C28.2309 25.1304 28.2309 24.0638 27.5727 23.4059L25.0252 20.8583C24.3673 20.1992 23.2997 20.1992 22.6416 20.8583C21.9837 21.5162 21.9837 22.5829 22.6416 23.2419L25.1891 25.7895Z" fill="#FF5700"/>
<path d="M45.2699 18.944C45.7968 18.944 46.3423 18.8949 46.9007 18.7966C49.2831 18.3761 51.6655 17.0744 53.6092 15.1296C57.8495 10.8904 58.689 5.08705 55.5198 1.91758C52.3519 -1.25039 46.5482 -0.410893 42.3079 3.82825C40.3645 5.7731 39.0614 8.15553 38.6412 10.5379C38.1823 13.1407 38.8051 15.4505 40.3972 17.0414C41.6476 18.2906 43.3407 18.944 45.2699 18.944ZM41.9614 11.1233C42.2587 9.441 43.2541 7.65081 44.6915 6.21308C46.5131 4.39143 48.7799 3.38468 50.6306 3.38468C51.6341 3.38468 52.5143 3.67961 53.1359 4.30151C54.9072 6.07282 54.0314 9.93971 51.2252 12.7471C49.7875 14.1849 47.9973 15.1799 46.315 15.476C45.4534 15.6283 43.8484 15.7242 42.7805 14.6563C41.7144 13.5902 41.8103 11.985 41.9614 11.1233Z" fill="#FF5700"/>
<path d="M46.6855 12.4393C47.1164 12.4393 47.5484 12.2742 47.8774 11.9451L50.425 9.39753C51.0829 8.73966 51.0829 7.67208 50.425 7.01391C49.7659 6.35604 48.6993 6.35604 48.0414 7.01391L45.4938 9.56148C44.8347 10.2196 44.8347 11.2872 45.4938 11.9451C45.8226 12.2742 46.2536 12.4393 46.6855 12.4393Z" fill="#FF5700"/>
</svg>
