<svg width="104" height="104" viewBox="0 0 104 104" fill="none" xmlns="http://www.w3.org/2000/svg">
<path d="M60.35 44.4256C48.2053 44.4256 38.3233 34.5168 38.3233 22.3374C38.3233 10.158 48.2053 0.25 60.35 0.25C72.4947 0.25 82.3766 10.158 82.3766 22.3374C82.3766 34.5168 72.4946 44.4256 60.35 44.4256ZM60.35 40.8639C70.539 40.8639 78.8268 32.5525 78.8268 22.3374C78.8268 12.1231 70.539 3.81172 60.35 3.81172C50.161 3.81172 41.8732 12.1231 41.8732 22.3374C41.8732 32.5526 50.161 40.8639 60.35 40.8639Z" fill="#FF5700" stroke="white" stroke-width="0.5"/>
<path d="M15.7296 70.2427C14.8173 69.6779 13.6642 69.8128 12.9142 70.5649L12.9139 70.5652L4.70409 78.8211L4.52921 78.9969L4.70368 79.1732L24.6026 99.2786L24.7782 99.4562L24.9559 99.2806L33.3263 91.012L33.3276 91.0107C34.1773 90.1587 34.226 88.7075 33.3166 87.7956L33.3165 87.7955C26.0136 80.4829 21.8038 76.2532 19.3579 73.7957C18.7566 73.1915 18.2618 72.6944 17.854 72.285C16.8218 71.2489 16.3433 70.7714 16.1013 70.54C15.9816 70.4257 15.9113 70.3632 15.8562 70.3221C15.8151 70.2915 15.7706 70.2662 15.7452 70.2518C15.7385 70.2479 15.7332 70.2449 15.7296 70.2427ZM15.7296 70.2427C15.7299 70.2429 15.7302 70.2431 15.7305 70.2433L15.5988 70.4558M15.7296 70.2427C15.7294 70.2426 15.7293 70.2425 15.7292 70.2425L15.5988 70.4558M15.5988 70.4558C14.7846 69.9512 13.759 70.0718 13.0912 70.7414L33.1396 87.9722C16.0769 70.8868 15.8985 70.6298 15.6535 70.4875C15.6372 70.4781 15.6206 70.4691 15.5988 70.4558ZM23.5044 103.224L23.5043 103.224L0.765462 80.249C0.077004 79.5531 0.0784518 78.4305 0.768171 77.7367L10.4021 68.0481C11.8033 66.6431 13.7495 66.0837 15.5948 66.4343L15.7746 66.4684L15.8615 66.3074C20.3825 57.93 28.8069 53.4545 38.4784 53.4545C41.9638 53.4545 45.3406 54.1303 48.5231 55.4655L48.5695 55.485H48.6198H71.2027C73.6107 55.485 75.8415 56.6095 77.3049 58.4155L77.4823 58.6344L77.6785 58.4322L89.6288 46.1161L89.634 46.1107L89.6389 46.105C92.4402 42.8478 97.3653 42.4489 100.653 45.2269C103.961 48.0316 104.379 53.0093 101.585 56.3235L101.584 56.3245C93.6247 65.8635 89.1277 71.2564 86.5825 74.3087C86.0202 74.983 85.5532 75.5431 85.1651 76.0084C83.2643 78.2876 83.2605 78.2896 83.2458 78.2977C83.2438 78.2988 83.2417 78.3 83.2348 78.3066L83.2347 78.3067C79.859 81.6009 75.4073 83.4146 70.6963 83.4146H43.7738C42.1262 83.4146 40.5667 84.0469 39.3831 85.1933L37.2713 87.2355L37.1573 87.3458L37.2084 87.4959C37.9123 89.5617 37.4247 91.9371 35.8268 93.5398C35.8267 93.54 35.8265 93.5402 35.8263 93.5404L26.0091 103.238C25.3121 103.927 24.1923 103.919 23.5044 103.224ZM47.4938 58.8971L47.4936 58.8971C44.647 57.6484 41.6138 57.0154 38.4777 57.0154C29.7407 57.0154 22.6924 61.0253 18.9365 68.0907L18.8498 68.2538L18.9802 68.3845L34.8458 84.2926L35.0197 84.467L35.1966 84.2957L36.9177 82.6303L36.9178 82.6302C38.7656 80.8401 41.2006 79.8537 43.7738 79.8537H70.6961C74.442 79.8537 77.9866 78.4234 80.6856 75.8252L80.6955 75.8157L80.7042 75.8053L98.8677 54.0322C98.8679 54.0319 98.8681 54.0317 98.8684 54.0314C100.404 52.2084 100.175 49.484 98.3635 47.9484L98.3632 47.9482C96.553 46.4179 93.833 46.6482 92.3008 48.4618L92.3 48.4627C92.3002 48.4624 92.2999 48.4627 92.299 48.4638C92.2965 48.4664 92.2899 48.4737 92.2763 48.4881C92.2585 48.5071 92.2324 48.5345 92.1957 48.5728C92.1223 48.6494 92.0081 48.7678 91.8365 48.9452C91.4934 49.2999 90.922 49.8892 89.9914 50.8484C89.3407 51.5191 88.5144 52.3706 87.4679 53.449C85.521 55.4553 82.8117 58.2472 79.0526 62.1219L78.9684 62.2086L78.9841 62.3284C79.0287 62.6694 79.0532 63.0124 79.0532 63.3576C79.0532 67.6992 75.5309 71.2302 71.2027 71.2302H54.6795C53.7 71.2302 52.9046 70.4342 52.9046 69.4497C52.9046 68.4659 53.7001 67.6693 54.6795 67.6693H71.2027C73.5752 67.6693 75.5033 65.7349 75.5033 63.3575C75.5033 60.9522 73.5346 59.0466 71.2027 59.0466H48.2051C47.9604 59.0466 47.7185 58.9959 47.4938 58.8971Z" fill="#FF5700" stroke="white" stroke-width="0.5"/>
<path d="M58.0036 12.769L58.1699 12.7099V12.5335V10.1539C58.1699 9.16933 58.9656 8.37268 59.945 8.37268C60.9243 8.37268 61.72 9.16937 61.72 10.1539V12.5192V12.6996L61.8911 12.7565C62.7813 13.0524 63.7774 13.5969 64.7782 14.568C65.4825 15.2521 65.5012 16.3795 64.8192 17.0864C64.1373 17.7924 63.0139 17.8111 62.3093 17.1275C61.5658 16.4059 60.7494 15.9953 59.9449 15.9953C58.6895 15.9953 57.67 17.0197 57.67 18.2765C57.67 19.5336 58.6897 20.557 59.9449 20.557C63.1566 20.557 65.7705 23.1772 65.7705 26.3992C65.7705 28.9371 64.1468 31.1024 61.8861 31.9067L61.7199 31.9659V32.1423V34.5219C61.7199 35.5064 60.9244 36.3023 59.9449 36.3023C58.9655 36.3023 58.17 35.5063 58.17 34.5219V32.1518V31.9721L57.9997 31.9148C56.7004 31.4777 55.4641 30.6077 54.4066 29.3465L54.4066 29.3465C53.7751 28.5936 53.8723 27.4704 54.623 26.8372C55.3734 26.205 56.4926 26.3016 57.1237 27.0542C57.9776 28.0735 58.9756 28.6797 59.9449 28.6797C61.2001 28.6797 62.2198 27.6562 62.2198 26.3992C62.2198 25.1421 61.2 24.1187 59.9449 24.1187C56.7331 24.1187 54.1192 21.4978 54.1192 18.2765C54.1192 15.7378 55.7429 13.5726 58.0036 12.769Z" fill="#FF5700" stroke="white" stroke-width="0.5"/>
</svg>
