<svg width="114" height="84" viewBox="0 0 114 84" fill="none" xmlns="http://www.w3.org/2000/svg">
<path d="M100.577 37.6715C96.6981 35.7326 89.4256 35.7095 89.1172 35.7095C88.1954 35.7095 87.4473 36.4573 87.4473 37.3794C87.4473 38.3012 88.1954 39.0493 89.1172 39.0493C90.9946 39.0493 96.4428 39.3391 99.0832 40.659C99.3234 40.7783 99.5784 40.8353 99.829 40.8353C100.441 40.8353 101.032 40.4966 101.324 39.912C101.737 39.0876 101.403 38.0845 100.577 37.6715Z" fill="#FF5700"/>
<path d="M108.904 61.447L102.006 59.4766C101.709 59.3909 101.5 59.1159 101.5 58.8063V56.5032C102.062 56.1146 102.597 55.6799 103.097 55.194C105.522 52.8409 106.857 49.6854 106.857 46.3073V43.1299L107.524 41.7963C108.257 40.3327 108.643 38.6943 108.643 37.0579V28.4524C108.643 27.5303 107.895 26.7825 106.973 26.7825H90.9035C85.0598 26.7825 80.3054 31.5357 80.3054 37.3794V37.4792C80.3054 38.8406 80.6278 40.2033 81.2366 41.4196L82.0913 43.1302V45.8579C82.0913 50.1812 84.2217 54.059 87.4478 56.3933L87.449 58.8054C87.449 59.1777 87.449 59.3318 86.0701 59.7263L82.7047 60.6876L72.9693 57.1471C73.004 56.6878 72.8499 56.2205 72.5148 55.869L69.4035 52.6011V47.1148C69.7328 46.8435 70.0564 46.565 70.3708 46.2705C74.2951 42.5931 76.5461 37.399 76.5461 32.0229V27.6416C77.7312 25.0627 78.332 22.3338 78.332 19.5239V1.66992C78.332 0.746639 77.5839 0 76.6621 0H51.6641C42.8672 0 35.7107 7.15614 35.7107 15.9534V19.5251C35.7107 22.335 36.3113 25.0639 37.4955 27.6416V31.4117C37.4955 37.6543 40.2716 43.2774 44.6377 46.986V52.6011L41.5277 55.869C41.1925 56.2217 41.0369 56.6878 41.0719 57.1483L30.7971 60.8835C30.0526 61.1549 29.3614 61.5212 28.733 61.9657L27.12 61.1585C31.922 59.0688 33.4435 56.1279 33.5165 55.9815C33.7519 55.5119 33.7519 54.9588 33.5165 54.488C32.313 52.0806 32.1669 47.6667 32.0496 44.1217C32.0113 42.9411 31.9742 41.8257 31.9036 40.833C31.3342 32.823 25.2447 26.7825 17.7394 26.7825C10.2341 26.7825 4.14467 32.8218 3.57526 40.833C3.50461 41.8257 3.46748 42.9414 3.42918 44.1217C3.31162 47.6679 3.16587 52.0806 1.96204 54.488C1.72662 54.9576 1.72662 55.5119 1.96204 55.9815C2.03508 56.1276 3.55328 59.0616 8.36591 61.1549L3.8837 63.3954C1.48792 64.5945 0 67.0018 0 69.6808V82.0174C0 82.9404 0.748123 83.6873 1.66992 83.6873C2.59171 83.6873 3.33983 82.9404 3.33983 82.0174V69.6808C3.33983 68.2754 4.12031 67.0113 5.37727 66.3828L10.9576 63.5928L12.8989 65.4379C14.2568 66.7275 15.9977 67.3723 17.7394 67.3723C19.4812 67.3723 21.2229 66.7275 22.58 65.4379L24.5212 63.594L26.3408 64.5033C25.4837 65.874 24.9965 67.4813 24.9965 69.1663V82.0189C24.9965 82.9407 25.7449 83.6888 26.6664 83.6888C27.5897 83.6888 28.3364 82.9407 28.3364 82.0189V69.1657C28.3364 66.873 29.7848 64.8064 31.9395 64.0227L42.7719 60.0832L47.2808 66.8474C47.857 67.7125 48.7812 68.2668 49.8158 68.3701C49.9307 68.3817 50.045 68.3864 50.1602 68.3864C51.0728 68.3864 51.9462 68.0281 52.6002 67.3741L55.3507 64.6233V82.0183C55.3507 82.9401 56.0988 83.6882 57.0206 83.6882C57.9427 83.6882 58.6905 82.9401 58.6905 82.0183V64.6236L61.4414 67.3744C62.0954 68.0284 62.9688 68.3879 63.8814 68.3879C63.9963 68.3879 64.1109 68.382 64.2258 68.3704C65.2601 68.2683 66.1845 67.7128 66.7608 66.8489L71.2697 60.0847L82.102 64.023C84.2568 64.807 85.7052 66.8736 85.7052 69.166V82.0186C85.7052 82.9404 86.4521 83.6885 87.3751 83.6885C88.2969 83.6885 89.045 82.9404 89.045 82.0186V69.1657C89.045 66.8442 88.1221 64.6663 86.5751 63.0555L86.988 62.9382C87.403 62.8189 87.9715 62.6565 88.5418 62.3768L92.8047 66.6396V82.018C92.8047 82.9398 93.5528 83.6879 94.4746 83.6879C95.3964 83.6879 96.1445 82.9398 96.1445 82.018V66.6396L100.379 62.4056C100.604 62.5205 100.84 62.6167 101.09 62.6885L107.986 64.6589C109.561 65.1089 110.66 66.5666 110.66 68.2039V82.0177C110.66 82.9395 111.408 83.6876 112.33 83.6876C113.252 83.6876 114 82.9395 114 82.0177V68.2039C113.999 65.0825 111.903 62.3041 108.904 61.447ZM10.7124 58.497C7.58931 57.3733 6.02151 55.875 5.35354 55.0562C5.80924 53.8651 6.10493 52.4992 6.30443 51.0576C7.22652 53.2657 8.76879 55.1512 10.7124 56.4963V58.497ZM20.2786 63.0172C18.8545 64.3706 16.6232 64.3694 15.1991 63.016L13.6467 61.5408C13.9088 61.0504 14.0525 60.4937 14.0525 59.9104V58.1303C15.2181 58.4946 16.4566 58.6905 17.7391 58.6905C19.0216 58.6905 20.259 58.4934 21.4257 58.1315V59.9092C21.4257 60.4937 21.5694 61.0504 21.8315 61.5408L20.2786 63.0172ZM17.74 55.3507C12.7534 55.3507 8.69692 51.2942 8.69692 46.3076C8.69692 45.3858 7.9488 44.6377 7.02701 44.6377C6.9329 44.6377 6.84145 44.6469 6.75209 44.662C6.75803 44.5184 6.76249 44.3744 6.76724 44.2331C6.80435 43.0839 6.84027 41.9997 6.90647 41.0696C7.11963 38.0694 8.3187 35.3037 10.2822 33.2834C12.2639 31.2448 14.9114 30.1223 17.7388 30.1223C20.566 30.1223 23.2147 31.2448 25.1966 33.2834C27.1598 35.3037 28.3589 38.0694 28.5723 41.0696C28.6385 41.9994 28.6745 43.0838 28.7128 44.2319C28.7152 44.3304 28.7184 44.4302 28.722 44.5299C26.9048 41.7304 24.0996 39.6674 20.4745 38.5031C17.1243 37.4269 14.2434 37.4931 14.1217 37.4964C13.6847 37.5083 13.2694 37.6914 12.9669 38.0067L9.95389 41.131C9.31383 41.7954 9.33253 42.8517 9.99724 43.4921C10.6605 44.1321 11.7182 44.1137 12.3583 43.449L14.8654 40.849C17.0248 40.9547 23.9699 41.7631 26.6723 47.7121C25.9922 52.0955 22.2243 55.3507 17.74 55.3507ZM24.7652 58.5026V56.5115C26.7077 55.1732 28.2523 53.2919 29.1741 51.068C29.3748 52.5061 29.6693 53.8675 30.1253 55.0574C29.4594 55.8679 27.886 57.3789 24.7652 58.5026ZM40.8348 31.4117V27.2682C40.8348 27.0167 40.7777 26.7685 40.6685 26.5423C39.5947 24.3169 39.0496 21.9559 39.0496 19.5251V15.9534C39.0496 8.99765 44.7078 3.33983 51.6632 3.33983H74.9913V19.5251C74.9913 21.9559 74.4462 24.3169 73.3713 26.5423C73.2623 26.7685 73.2053 27.0179 73.2053 27.2682V32.0229C73.2053 36.5455 71.387 40.74 68.0866 43.8341C67.6737 44.2203 67.247 44.5831 66.8041 44.9194C66.7949 44.9263 66.7854 44.9346 66.7762 44.9414C63.6834 47.2885 59.8959 48.4297 55.9394 48.1735C47.4702 47.6251 40.8348 40.2624 40.8348 31.4117ZM50.2374 65.0131C50.2258 65.0246 50.1991 65.0514 50.1444 65.0454C50.0901 65.0407 50.069 65.0083 50.0598 64.9944L44.8669 57.205L46.538 55.4481L54.4167 60.8337L50.2374 65.0131ZM57.02 58.5688L47.9769 52.3867V49.2695C50.3172 50.5348 52.9368 51.3257 55.7236 51.5065C56.1644 51.5344 56.6014 51.5495 57.0376 51.5495C60.2301 51.5495 63.3031 50.7854 66.0631 49.3369V52.3867L57.02 58.5688ZM63.9817 64.9955C63.9725 65.0095 63.9505 65.0407 63.8959 65.0466C63.8413 65.0534 63.8149 65.0246 63.803 65.0131L59.6248 60.8349L67.5036 55.4493L69.1746 57.205L63.9817 64.9955ZM94.4737 63.5866L90.6838 59.7967C90.75 59.4962 90.7883 59.1682 90.7871 58.8051V58.1001C91.8389 58.4456 92.9474 58.6499 94.0946 58.6846C94.2234 58.6882 94.3508 58.6905 94.4784 58.6905C95.7461 58.6905 96.9834 58.499 98.1602 58.1339V58.8066C98.1602 59.1394 98.2021 59.4654 98.2808 59.7795L94.4737 63.5866ZM100.771 52.7985C99.001 54.5159 96.6631 55.4228 94.1943 55.3462C89.3621 55.2014 85.4306 50.9454 85.4306 45.859V42.7371C85.4306 42.4773 85.3703 42.2211 85.2543 41.9902L84.222 39.926C83.845 39.1711 83.6446 38.3247 83.6446 37.4792V37.3794C83.6446 33.3773 86.901 30.1223 90.9029 30.1223H105.302V37.0582C105.302 38.1783 105.038 39.3011 104.536 40.3039L103.693 41.9902C103.577 42.222 103.516 42.4773 103.516 42.7371V46.3076C103.517 48.7743 102.542 51.0796 100.771 52.7985Z" fill="#FF5700"/>
<path d="M105.187 69.634C104.265 69.634 103.517 70.3822 103.517 71.304V82.017C103.517 82.9399 104.265 83.6869 105.187 83.6869C106.108 83.6869 106.857 82.9399 106.857 82.017V71.304C106.857 70.3822 106.109 69.634 105.187 69.634Z" fill="#FF5700"/>
<path d="M8.81176 71.8425C7.88967 71.8425 7.14185 72.5907 7.14185 73.5124V82.0173C7.14185 82.9403 7.88967 83.6872 8.81176 83.6872C9.73356 83.6872 10.4817 82.9403 10.4817 82.0173V73.5124C10.4817 72.5904 9.73356 71.8425 8.81176 71.8425Z" fill="#FF5700"/>
<path d="M70.6993 20.1293C64.3839 13.8139 51.1692 15.021 45.7803 15.8342C44.0825 16.0892 42.8511 17.5261 42.8511 19.2494V23.096C42.8511 24.0178 43.5989 24.7659 44.521 24.7659C45.444 24.7659 46.1909 24.0178 46.1909 23.096V19.2482C46.1909 19.1912 46.2292 19.1437 46.2791 19.1357C48.4314 18.8109 52.7022 18.311 57.1277 18.6058C62.3346 18.9525 66.107 20.2594 68.338 22.4916C68.9896 23.1435 70.0474 23.1435 70.699 22.4916C71.3525 21.8387 71.3525 20.7813 70.6993 20.1293Z" fill="#FF5700"/>
<path d="M37.3801 73.2063C36.4571 73.2063 35.7101 73.9544 35.7101 74.8762V82.0187C35.7101 82.9405 36.4571 83.6886 37.3801 83.6886C38.3022 83.6886 39.05 82.9405 39.05 82.0187V74.8762C39.05 73.9541 38.3022 73.2063 37.3801 73.2063Z" fill="#FF5700"/>
<path d="M76.6612 73.2063C75.7382 73.2063 74.9913 73.9544 74.9913 74.8762V82.0187C74.9913 82.9405 75.7382 83.6886 76.6612 83.6886C77.583 83.6886 78.3311 82.9405 78.3311 82.0187V74.8762C78.3311 73.9541 77.5833 73.2063 76.6612 73.2063Z" fill="#FF5700"/>
</svg>
