<svg width="125" height="32" viewBox="0 0 125 32" fill="none" xmlns="http://www.w3.org/2000/svg">
<path d="M44.7693 6.13721H37.6747C37.4389 6.13721 37.2112 6.22501 37.0323 6.38389C36.8534 6.54276 36.7355 6.76436 36.6989 7.00685L33.8286 26.0471C33.8164 26.1349 33.8205 26.2269 33.8449 26.3105C33.8692 26.3983 33.9099 26.4778 33.9628 26.5447C34.0197 26.6116 34.0888 26.6659 34.166 26.7035C34.2433 26.7412 34.3287 26.7621 34.414 26.7621H37.8007C38.0365 26.7621 38.2642 26.6743 38.4431 26.5154C38.622 26.3565 38.7399 26.1349 38.7765 25.8924L39.549 20.7582C39.5856 20.5157 39.7035 20.2941 39.8824 20.1352C40.0613 19.9763 40.2889 19.8885 40.5207 19.8885H42.769C47.4445 19.8885 50.14 17.5221 50.8434 12.831C51.1605 10.7781 50.8556 9.16843 49.9408 8.03956C48.9325 6.79362 47.1436 6.13721 44.7693 6.13721ZM45.5865 13.0902C45.2002 15.7535 43.2528 15.7535 41.3704 15.7535H40.3011L41.0533 10.7781C41.0736 10.6318 41.1468 10.498 41.2525 10.406C41.3582 10.3098 41.4964 10.2597 41.6347 10.2597H42.1266C43.4073 10.2597 44.6189 10.2597 45.2409 11.0248C45.6149 11.4763 45.7288 12.1537 45.5865 13.0902ZM65.9798 13.0024H62.581C62.4387 13.0024 62.3045 13.0568 62.1988 13.1487C62.0931 13.2449 62.0199 13.3787 61.9996 13.5209L61.8491 14.5159L61.6133 14.1564C60.8774 13.04 59.239 12.6637 57.6005 12.6637C53.8438 12.6637 50.6401 15.6406 50.014 19.8133C49.6887 21.8954 50.1522 23.8855 51.2784 25.2736C52.3152 26.5488 53.7951 27.084 55.5596 27.084C58.5844 27.084 60.2635 25.0479 60.2635 25.0479L60.1131 26.0346C60.1009 26.1224 60.105 26.2144 60.1294 26.298C60.1538 26.3858 60.1944 26.4652 60.2473 26.5321C60.3042 26.599 60.3733 26.6534 60.4505 26.691C60.5278 26.7286 60.6132 26.7495 60.6986 26.7495H63.76C63.9958 26.7495 64.2235 26.6617 64.4024 26.5029C64.5813 26.344 64.6992 26.1224 64.7358 25.8799L66.5734 13.7132C66.5856 13.6254 66.5816 13.5334 66.5572 13.4498C66.5328 13.362 66.4921 13.2825 66.4393 13.2156C66.3824 13.1487 66.3173 13.0944 66.236 13.0568C66.1465 13.0233 66.0652 13.0024 65.9798 13.0024ZM61.2434 19.922C60.914 21.9539 59.3732 23.3169 57.4094 23.3169C56.4215 23.3169 55.6327 22.9866 55.1286 22.3595C54.6245 21.7365 54.4334 20.8501 54.596 19.8634C54.9009 17.8482 56.4703 16.4434 58.4055 16.4434C59.3691 16.4434 60.1538 16.7779 60.6701 17.4134C61.1864 18.0489 61.3897 18.9394 61.2434 19.922ZM84.0761 13.0024H80.661C80.4983 13.0024 80.3398 13.0442 80.1975 13.1237C80.0552 13.2031 79.9332 13.316 79.8438 13.454L75.1357 20.7122L73.1395 13.7383C73.0785 13.525 72.9525 13.3411 72.7817 13.2073C72.6109 13.0735 72.4036 13.0024 72.1922 13.0024H68.838C68.7445 13.0024 68.651 13.0275 68.5656 13.0693C68.4802 13.1153 68.4111 13.178 68.3542 13.2574C68.3013 13.3369 68.2648 13.4289 68.2485 13.5292C68.2363 13.6254 68.2444 13.7257 68.2729 13.8177L72.0336 25.3656L68.4965 30.5877C68.4314 30.6797 68.3949 30.7884 68.3908 30.9013C68.3827 31.0142 68.4071 31.127 68.4558 31.2274C68.5046 31.3277 68.5819 31.4113 68.6754 31.4699C68.7689 31.5284 68.8746 31.5619 68.9844 31.5619H72.3955C72.554 31.5619 72.7126 31.5201 72.8549 31.4448C72.9972 31.3695 73.1151 31.2567 73.2086 31.1187L84.564 13.964C84.625 13.8721 84.6616 13.7634 84.6697 13.6505C84.6778 13.5376 84.6534 13.4247 84.6047 13.3243C84.5559 13.224 84.4786 13.1404 84.3851 13.0818C84.2916 13.0233 84.1818 13.0024 84.0761 13.0024Z" fill="white"/>
<path d="M95.5428 6.13721H88.4956C88.2644 6.13721 88.0372 6.22346 87.8586 6.38364C87.6801 6.54382 87.5625 6.76561 87.526 7.00793L84.6779 26.1228C84.6657 26.2131 84.6698 26.3035 84.6941 26.3897C84.7185 26.476 84.759 26.554 84.8118 26.6238C84.8686 26.6937 84.9335 26.747 85.0106 26.784C85.0876 26.821 85.1729 26.8415 85.254 26.8415H88.8689C89.0312 26.8415 89.1894 26.7799 89.3152 26.669C89.4409 26.5581 89.5221 26.402 89.5464 26.2295L90.3538 20.8122C90.3903 20.5698 90.5079 20.3481 90.6824 20.1838C90.8609 20.0236 91.0841 19.9332 91.3194 19.9332H93.5467C98.188 19.9332 100.866 17.5552 101.568 12.8483C101.884 10.7865 101.58 9.16831 100.667 8.03473C99.677 6.79436 97.9 6.13721 95.5428 6.13721ZM96.3542 13.1194C95.9688 15.7932 94.0376 15.7932 92.1673 15.7932H91.1043L91.8509 10.7989C91.8711 10.651 91.9442 10.5196 92.0496 10.4251C92.1551 10.3306 92.2931 10.2772 92.431 10.2772H92.9179C94.1877 10.2772 95.3927 10.2772 96.0094 11.0453C96.3826 11.5012 96.4962 12.1789 96.3542 13.1194ZM116.603 13.0332H113.232C113.09 13.0332 112.956 13.0866 112.85 13.181C112.745 13.2755 112.676 13.411 112.652 13.5589L112.502 14.5569L112.266 14.1955C111.536 13.0742 109.909 12.7005 108.282 12.7005C104.554 12.7005 101.369 15.6864 100.748 19.8798C100.428 21.9704 100.882 23.9706 102.006 25.3629C103.036 26.6444 104.505 27.1783 106.258 27.1783C109.26 27.1783 110.927 25.1329 110.927 25.1329L110.777 26.1269C110.765 26.2172 110.769 26.3076 110.793 26.3938C110.818 26.4801 110.858 26.5622 110.911 26.6279C110.968 26.6978 111.037 26.7512 111.114 26.7881C111.191 26.8251 111.276 26.8456 111.361 26.8456H114.4C114.631 26.8456 114.859 26.7553 115.037 26.5951C115.216 26.4349 115.333 26.2131 115.37 25.9667L117.196 13.7478C117.208 13.6575 117.204 13.5671 117.179 13.4808C117.155 13.3946 117.114 13.3125 117.062 13.2467C117.005 13.1769 116.94 13.1235 116.863 13.0866C116.774 13.0537 116.688 13.0332 116.603 13.0332ZM111.901 19.9825C111.576 22.0238 110.047 23.3915 108.095 23.3915C107.118 23.3915 106.331 23.0588 105.832 22.4304C105.333 21.8061 105.146 20.9149 105.3 19.9209C105.604 17.9002 107.158 16.4832 109.081 16.4832C110.039 16.4832 110.818 16.82 111.333 17.4566C111.844 18.0973 112.051 18.9927 111.901 19.9825ZM120.579 6.66293L117.687 26.131C117.674 26.2213 117.678 26.3117 117.703 26.3979C117.727 26.4842 117.768 26.5622 117.82 26.632C117.877 26.7019 117.942 26.7553 118.019 26.7922C118.096 26.8292 118.181 26.8497 118.267 26.8497H121.176C121.658 26.8497 122.068 26.4801 122.141 25.9749L124.993 6.86007C125.006 6.76971 125.001 6.67936 124.977 6.5931C124.953 6.50685 124.912 6.42471 124.859 6.35899C124.803 6.28917 124.738 6.23578 124.661 6.19881C124.584 6.16185 124.498 6.14131 124.417 6.14131H121.163C121.021 6.14131 120.888 6.19471 120.782 6.29328C120.673 6.38364 120.604 6.51507 120.579 6.66293Z" fill="white"/>
<path d="M23.5356 7C23.5062 7.18888 23.4727 7.38186 23.435 7.57895C22.1522 14.2553 17.7506 16.5629 12.1291 16.5629H9.26593C8.57844 16.5629 7.99994 17.068 7.89095 17.7537L6.42374 27.1483L6.00872 29.8131C5.99196 29.9198 6.00034 30.0266 6.02549 30.1292C6.05484 30.2319 6.10514 30.3263 6.17221 30.4084C6.23928 30.4906 6.32732 30.5563 6.42374 30.6014C6.52015 30.6466 6.62495 30.6712 6.72975 30.6712H11.8063C12.4058 30.6712 12.9172 30.2278 13.0136 29.6324L13.0639 29.3737L14.0197 23.2434L14.0826 22.9067C14.1748 22.3073 14.6862 21.8638 15.2899 21.8638H16.0486C20.9659 21.8638 24.8184 19.8436 25.9418 14.0049C26.4113 11.5659 26.1682 9.52931 24.9232 8.09631C24.5333 7.64054 24.0596 7.271 23.5356 7Z" fill="#CFD6EA"/>
<path d="M22.4196 6.48996C22.0055 6.36645 21.5832 6.2685 21.1568 6.1961C20.3163 6.05982 19.4635 5.99594 18.6107 6.0002H10.9028C10.6076 6.0002 10.3247 6.11093 10.1033 6.31109C9.88189 6.51125 9.73429 6.78807 9.68919 7.09044L8.0492 17.9588L8 18.274C8.0492 17.929 8.2173 17.6139 8.4715 17.3839C8.7257 17.1582 9.04959 17.0304 9.38579 17.0304H12.2722C17.9425 17.0304 22.3786 14.6242 23.6783 7.65686C23.7193 7.45244 23.748 7.24802 23.7808 7.05212C23.4364 6.86473 23.0797 6.70716 22.7148 6.58365C22.6164 6.55384 22.518 6.51977 22.4196 6.48996Z" fill="#929DBF"/>
<path d="M9.81597 7.79808C9.86107 7.51915 10.0046 7.26447 10.2219 7.07851C10.4393 6.89255 10.714 6.79149 11.0011 6.79553H18.5054C19.3952 6.79553 20.2236 6.85213 20.9822 6.9734C21.4948 7.05425 21.9992 7.17149 22.4954 7.32915C22.8685 7.45042 23.213 7.59596 23.5328 7.76574C23.9101 5.38872 23.5287 3.76766 22.2329 2.30425C20.8059 0.691276 18.2265 0 14.9295 0H5.3503C4.67778 0 4.10368 0.485106 3.99707 1.14808L0.0111785 26.2362C-0.00932506 26.3534 -0.00112396 26.4706 0.0316817 26.5838C0.0644873 26.697 0.121898 26.8021 0.195711 26.8911C0.273624 26.98 0.36794 27.0528 0.474559 27.1013C0.581177 27.1498 0.700098 27.1781 0.819018 27.1781H6.73224L8.21669 17.8317L9.81597 7.79808Z" fill="white"/>
</svg>
