<svg width="103" height="84" viewBox="0 0 103 84" fill="none" xmlns="http://www.w3.org/2000/svg">
<path d="M102.217 77.961L95.9348 30.0872C99.6183 27.3813 102.016 23.0208 102.016 18.1092C102.016 9.91743 95.3515 3.25354 87.1598 3.25354C84.2241 3.25354 81.4857 4.11344 79.1783 5.58913L79.5652 1.77359C79.6546 0.888657 79.0098 0.0982262 78.1249 0.0087744C77.2399 -0.0836059 76.4495 0.564124 76.3601 1.44932L75.8026 6.95168H70.1131L70.7339 1.80394C70.8399 0.919809 70.2097 0.118199 69.3269 0.0119755C68.446 -0.0929174 67.6412 0.53511 67.5352 1.41791L66.8686 6.95168H33.6674L34.2871 1.80394C34.3933 0.919809 33.764 0.118199 32.8801 0.0119755C31.9992 -0.0929174 31.1954 0.53511 31.0881 1.41791L30.4218 6.95168H24.9349L25.5547 1.80394C25.6609 0.919809 25.0315 0.118199 24.1487 0.0119755C23.267 -0.0929174 22.463 0.53511 22.357 1.41791L21.6904 6.95168H7.20399C6.36165 6.95168 5.66175 7.60153 5.59812 8.44067L0.00446394 82.2674C-0.0288142 82.7147 0.12506 83.1555 0.429622 83.4841C0.73445 83.8126 1.16282 84 1.61114 84H16.1806C17.0698 84 17.7905 83.2783 17.7905 82.3891C17.7905 81.4988 17.0698 80.7781 16.1806 80.7781H3.34879L7.29132 28.7311H76.7884C79.4675 31.3486 83.1281 32.9656 87.1598 32.9656C87.45 32.9656 87.7369 32.9542 88.0229 32.9377L84.3977 80.7781H21.9792C21.0901 80.7781 20.3683 81.4988 20.3683 82.3891C20.3683 83.2783 21.0901 84 21.9792 84H85.892C86.7344 84 87.4343 83.3501 87.4976 82.5107L87.7045 79.7819H100.62C101.083 79.7819 101.524 79.5812 101.83 79.2327C102.136 78.8842 102.278 78.4207 102.217 77.961ZM74.2864 25.5103H7.53573L8.69725 10.1733H21.3025L20.7908 14.4214C20.6846 15.3053 21.314 16.1072 22.1968 16.2134C22.2623 16.2217 22.3277 16.2259 22.3922 16.2259C23.1951 16.2259 23.8907 15.6248 23.9885 14.8072L24.547 10.1743H30.0336L29.5222 14.4225C29.416 15.3053 30.0451 16.1072 30.9292 16.2145C30.9947 16.2216 31.0591 16.2259 31.1233 16.2259C31.9276 16.2259 32.6219 15.6258 32.7207 14.8072L33.2792 10.1743H66.4804L65.9688 14.4225C65.8628 15.3053 66.4919 16.1082 67.3758 16.2145C67.4402 16.2216 67.5057 16.2259 67.5701 16.2259C68.373 16.2259 69.0687 15.6248 69.1675 14.8072L69.7249 10.1743H74.6107C73.1518 12.4716 72.303 15.1932 72.303 18.1103C72.3033 20.8037 73.0283 23.3296 74.2864 25.5103ZM87.16 29.744C80.7445 29.744 75.5252 24.5244 75.5252 18.1092C75.5252 11.6937 80.7445 6.47513 87.16 6.47513C93.5755 6.47513 98.7938 11.6937 98.7938 18.1092C98.7938 24.5244 93.5753 29.744 87.16 29.744ZM87.9491 76.5601L91.2966 32.3751C91.8477 32.2149 92.3876 32.0267 92.9108 31.8062L98.7845 76.5601H87.9491Z" fill="#FF5700"/>
<path d="M66.9106 37.4604H60.6375C59.7483 37.4604 59.0266 38.1811 59.0266 39.0714C59.0266 39.9606 59.7483 40.6823 60.6375 40.6823H66.9106C67.8008 40.6823 68.5215 39.9606 68.5215 39.0714C68.5215 38.1811 67.8008 37.4604 66.9106 37.4604Z" fill="#FF5700"/>
<path d="M78.1525 40.6823C79.0416 40.6823 79.7623 39.9606 79.7623 39.0714C79.7623 38.1811 79.0416 37.4604 78.1525 37.4604H71.8786C70.9894 37.4604 70.2677 38.1811 70.2677 39.0714C70.2677 39.9606 70.9894 40.6823 71.8786 40.6823H78.1525Z" fill="#FF5700"/>
<path d="M20.8464 46.8677H14.5733C13.683 46.8677 12.9624 47.5894 12.9624 48.4786C12.9624 49.3689 13.683 50.0895 14.5733 50.0895H20.8464C21.7356 50.0895 22.4571 49.3689 22.4571 48.4786C22.4571 47.5894 21.7356 46.8677 20.8464 46.8677Z" fill="#FF5700"/>
<path d="M32.087 46.8677H25.8142C24.9239 46.8677 24.2032 47.5894 24.2032 48.4786C24.2032 49.3689 24.9239 50.0895 25.8142 50.0895H32.087C32.9772 50.0895 33.6979 49.3689 33.6979 48.4786C33.6979 47.5894 32.9772 46.8677 32.087 46.8677Z" fill="#FF5700"/>
<path d="M43.3278 46.8677H37.055C36.1647 46.8677 35.444 47.5894 35.444 48.4786C35.444 49.3689 36.1647 50.0895 37.055 50.0895H43.3278C44.217 50.0895 44.9387 49.3689 44.9387 48.4786C44.9387 47.5894 44.218 46.8677 43.3278 46.8677Z" fill="#FF5700"/>
<path d="M54.5686 50.0895C55.4589 50.0895 56.1796 49.3689 56.1796 48.4786C56.1796 47.5894 55.4589 46.8677 54.5686 46.8677H48.2956C47.4053 46.8677 46.6846 47.5894 46.6846 48.4786C46.6846 49.3689 47.4053 50.0895 48.2956 50.0895H54.5686Z" fill="#FF5700"/>
<path d="M57.9255 48.4786C57.9255 49.3689 58.6472 50.0895 59.5364 50.0895H65.8095C66.6997 50.0895 67.4204 49.3689 67.4204 48.4786C67.4204 47.5894 66.6997 46.8677 65.8095 46.8677H59.5364C58.6472 46.8677 57.9255 47.5894 57.9255 48.4786Z" fill="#FF5700"/>
<path d="M69.1674 48.4786C69.1674 49.3689 69.888 50.0895 70.7772 50.0895H77.0511C77.9403 50.0895 78.662 49.3689 78.662 48.4786C78.662 47.5894 77.9403 46.8677 77.0511 46.8677H70.7772C69.888 46.8677 69.1674 47.5894 69.1674 48.4786Z" fill="#FF5700"/>
<path d="M11.8613 57.887C11.8613 58.7773 12.582 59.498 13.4719 59.498H19.7439C20.6342 59.498 21.3549 58.7773 21.3549 57.887C21.3549 56.9979 20.6342 56.2761 19.7439 56.2761H13.4719C12.582 56.2761 11.8613 56.9979 11.8613 57.887Z" fill="#FF5700"/>
<path d="M23.1018 57.887C23.1018 58.7773 23.8225 59.498 24.7128 59.498H30.9858C31.8748 59.498 32.5965 58.7773 32.5965 57.887C32.5965 56.9979 31.8748 56.2761 30.9858 56.2761H24.7128C23.8225 56.2761 23.1018 56.9979 23.1018 57.887Z" fill="#FF5700"/>
<path d="M34.3427 57.887C34.3427 58.7773 35.0634 59.498 35.9536 59.498H42.2264C43.1156 59.498 43.8373 58.7773 43.8373 57.887C43.8373 56.9979 43.1156 56.2761 42.2264 56.2761H35.9536C35.0634 56.2761 34.3427 56.9979 34.3427 57.887Z" fill="#FF5700"/>
<path d="M45.5835 57.887C45.5835 58.7773 46.3052 59.498 47.1942 59.498H53.4673C54.3575 59.498 55.0782 58.7773 55.0782 57.887C55.0782 56.9979 54.3575 56.2761 53.4673 56.2761H47.1942C46.3052 56.2761 45.5835 56.9979 45.5835 57.887Z" fill="#FF5700"/>
<path d="M56.8241 57.887C56.8241 58.7773 57.5458 59.498 58.435 59.498H64.7089C65.5981 59.498 66.3187 58.7773 66.3187 57.887C66.3187 56.9979 65.5981 56.2761 64.7089 56.2761H58.435C57.5458 56.2761 56.8241 56.9979 56.8241 57.887Z" fill="#FF5700"/>
<path d="M68.066 57.887C68.066 58.7773 68.7867 59.498 69.6769 59.498H75.95C76.8403 59.498 77.561 58.7773 77.561 57.887C77.561 56.9979 76.8403 56.2761 75.95 56.2761H69.6769C68.7867 56.2761 68.066 56.9979 68.066 57.887Z" fill="#FF5700"/>
<path d="M18.6436 65.6846H12.3708C11.4806 65.6846 10.7599 66.4052 10.7599 67.2955C10.7599 68.1847 11.4806 68.9064 12.3708 68.9064H18.6436C19.5339 68.9064 20.2546 68.1847 20.2546 67.2955C20.2546 66.4052 19.5339 65.6846 18.6436 65.6846Z" fill="#FF5700"/>
<path d="M22.0007 67.2952C22.0007 68.1844 22.7225 68.9062 23.6114 68.9062H29.8845C30.7747 68.9062 31.4954 68.1844 31.4954 67.2952C31.4954 66.405 30.7747 65.6843 29.8845 65.6843H23.6114C22.7225 65.6846 22.0007 66.4053 22.0007 67.2952Z" fill="#FF5700"/>
<path d="M33.2413 67.2952C33.2413 68.1844 33.962 68.9062 34.8522 68.9062H41.1253C42.0153 68.9062 42.736 68.1844 42.736 67.2952C42.736 66.405 42.0153 65.6843 41.1253 65.6843H34.8522C33.962 65.6846 33.2413 66.4053 33.2413 67.2952Z" fill="#FF5700"/>
<path d="M44.4822 67.2952C44.4822 68.1844 45.2039 68.9062 46.0931 68.9062H52.3659C53.2561 68.9062 53.9768 68.1844 53.9768 67.2952C53.9768 66.405 53.2561 65.6843 52.3659 65.6843H46.0931C45.2039 65.6846 44.4822 66.4053 44.4822 67.2952Z" fill="#FF5700"/>
<path d="M90.4372 14.2928L86.0392 18.5306L83.8782 16.4559C83.2377 15.839 82.2175 15.8598 81.6007 16.5017C80.9849 17.1433 81.0059 18.1634 81.6475 18.779L84.9264 21.9271C85.2373 22.2266 85.6398 22.3762 86.0413 22.3762C86.4449 22.3762 86.8472 22.2255 87.1592 21.9249L92.673 16.6129C93.3135 15.995 93.3324 14.9759 92.7156 14.3354C92.0979 13.6948 91.0788 13.6759 90.4372 14.2928Z" fill="#FF5700"/>
</svg>
