<svg width="231" height="57" viewBox="0 0 231 57" fill="none" xmlns="http://www.w3.org/2000/svg">
<path d="M85.9457 11.9993H73.1376C72.7136 11.999 72.3035 12.1531 71.981 12.4337C71.6586 12.7143 71.4451 13.103 71.3791 13.5298L66.199 46.9975C66.1751 47.1528 66.1846 47.3115 66.2268 47.4627C66.269 47.6139 66.3428 47.754 66.4431 47.8733C66.5435 47.9927 66.6681 48.0884 66.8083 48.154C66.9485 48.2196 67.101 48.2534 67.2552 48.2532H73.3699C73.7942 48.2534 74.2046 48.0991 74.527 47.8181C74.8495 47.5371 75.0628 47.1479 75.1284 46.7208L76.5255 37.694C76.5911 37.2672 76.8042 36.8783 77.1262 36.5973C77.4483 36.3163 77.8582 36.1618 78.2822 36.1616H82.3368C90.7737 36.1616 95.643 32.0012 96.9146 23.7569C97.4877 20.1501 96.9389 17.3161 95.2815 15.3314C93.4612 13.152 90.2325 11.9993 85.9457 11.9993ZM87.4233 24.2226C86.7229 28.9058 83.2114 28.9058 79.816 28.9058H77.8833L79.2392 20.1596C79.2789 19.9037 79.4069 19.6707 79.6002 19.5024C79.7935 19.3341 80.0394 19.2417 80.2936 19.2417H81.1794C83.4923 19.2417 85.6741 19.2417 86.8015 20.5852C87.4739 21.3867 87.6799 22.5776 87.4233 24.2226ZM124.231 24.0718H118.098C117.844 24.0718 117.598 24.1643 117.404 24.3326C117.211 24.5009 117.083 24.7339 117.043 24.9898L116.772 26.7379L116.343 26.1043C115.015 24.1405 112.054 23.484 109.099 23.484C102.321 23.484 96.5326 28.715 95.4051 36.0528C94.8189 39.7131 95.6523 43.2131 97.6899 45.654C99.559 47.8982 102.233 48.8334 105.415 48.8334C110.876 48.8334 113.905 45.2551 113.905 45.2551L113.631 46.9917C113.607 47.147 113.616 47.3058 113.657 47.4572C113.699 47.6086 113.772 47.749 113.872 47.8687C113.973 47.9885 114.097 48.0847 114.237 48.1507C114.377 48.2167 114.529 48.2511 114.684 48.2513H120.208C120.633 48.2515 121.043 48.0972 121.366 47.8162C121.688 47.5352 121.901 47.146 121.967 46.7188L125.282 25.3276C125.306 25.1726 125.297 25.0142 125.256 24.8631C125.214 24.712 125.141 24.5719 125.041 24.4525C124.941 24.3331 124.817 24.2373 124.677 24.1715C124.537 24.1058 124.385 24.0718 124.231 24.0718ZM115.682 36.236C115.09 39.8066 112.309 42.2036 108.762 42.2036C106.981 42.2036 105.558 41.6215 104.644 40.5184C103.737 39.423 103.393 37.8639 103.681 36.1272C104.233 32.5871 107.061 30.1119 110.554 30.1119C112.296 30.1119 113.712 30.7016 114.644 31.8142C115.579 32.9383 115.95 34.507 115.682 36.236ZM156.896 24.0718H150.733C150.442 24.0723 150.156 24.145 149.899 24.2837C149.642 24.4224 149.423 24.6228 149.259 24.8676L140.758 37.6272L137.155 25.3657C137.045 24.9918 136.819 24.664 136.511 24.431C136.204 24.198 135.831 24.072 135.447 24.0718H129.391C129.221 24.0714 129.053 24.1123 128.902 24.1912C128.75 24.2701 128.62 24.3847 128.521 24.5255C128.421 24.6662 128.357 24.8291 128.332 25.0005C128.307 25.1718 128.323 25.3468 128.377 25.5108L135.166 45.8124L128.784 54.9937C128.67 55.1565 128.603 55.3479 128.589 55.5471C128.576 55.7462 128.616 55.9454 128.706 56.1228C128.796 56.3001 128.932 56.4489 129.099 56.5527C129.267 56.6565 129.459 56.7113 129.655 56.7112H135.811C136.098 56.7116 136.381 56.641 136.636 56.5054C136.891 56.3698 137.109 56.1732 137.273 55.9326L157.773 25.7799C157.884 25.6167 157.949 25.4257 157.961 25.2275C157.973 25.0293 157.932 24.8315 157.842 24.6556C157.752 24.4796 157.616 24.3322 157.449 24.2293C157.282 24.1264 157.091 24.0719 156.896 24.0718Z" fill="#253B80"/>
<path d="M177.626 12.0012H164.879C164.457 12.0014 164.05 12.1591 163.729 12.4459C163.409 12.7327 163.196 13.1298 163.131 13.5657L157.976 47.7749C157.952 47.9334 157.961 48.0954 158.003 48.2498C158.044 48.4042 158.118 48.5474 158.217 48.6694C158.317 48.7914 158.44 48.8893 158.579 48.9565C158.719 49.0237 158.87 49.0585 159.023 49.0585H165.565C165.86 49.058 166.145 48.9473 166.369 48.7464C166.593 48.5454 166.742 48.2673 166.787 47.9622L168.25 38.2653C168.315 37.829 168.527 37.4315 168.848 37.1443C169.168 36.8571 169.576 36.6992 169.998 36.6989H174.031C182.429 36.6989 187.272 32.4464 188.539 24.0194C189.111 20.3326 188.562 17.4358 186.912 15.4071C185.103 13.1794 181.892 12.0012 177.626 12.0012ZM179.096 24.4954C178.401 29.2824 174.907 29.2824 171.526 29.2824H169.605L170.956 20.3424C170.995 20.0808 171.122 19.8424 171.314 19.6703C171.506 19.4982 171.751 19.4038 172.003 19.4041H172.885C175.185 19.4041 177.358 19.4041 178.48 20.7774C179.149 21.5967 179.352 22.8139 179.096 24.4954ZM215.722 24.3413H209.622C209.369 24.3406 209.125 24.4348 208.932 24.607C208.74 24.7792 208.613 25.0178 208.575 25.2796L208.305 27.0664L207.876 26.4188C206.555 24.4115 203.61 23.7405 200.67 23.7405C193.925 23.7405 188.167 29.0873 187.045 36.5877C186.463 40.3291 187.289 43.9067 189.316 46.4016C191.18 48.6956 193.838 49.6515 197.004 49.6515C202.438 49.6515 205.452 45.9939 205.452 45.9939L205.179 47.769C205.155 47.9281 205.164 48.0907 205.206 48.2458C205.248 48.4008 205.321 48.5445 205.421 48.667C205.521 48.7894 205.645 48.8876 205.785 48.9549C205.925 49.0222 206.077 49.0568 206.231 49.0565H211.726C212.148 49.0562 212.556 48.8983 212.877 48.6111C213.197 48.3239 213.409 47.9264 213.474 47.4901L216.775 25.6248C216.798 25.466 216.789 25.3037 216.746 25.1492C216.704 24.9946 216.631 24.8515 216.531 24.7295C216.43 24.6076 216.306 24.5097 216.167 24.4427C216.027 24.3757 215.875 24.3411 215.722 24.3413ZM207.215 36.775C206.629 40.4247 203.858 42.8748 200.329 42.8748C198.56 42.8748 197.14 42.2798 196.23 41.1523C195.328 40.0326 194.989 38.4389 195.273 36.6638C195.826 33.0453 198.636 30.5152 202.112 30.5152C203.845 30.5152 205.254 31.118 206.182 32.2552C207.116 33.4042 207.485 35.0076 207.215 36.775ZM222.917 12.9395L217.686 47.7749C217.662 47.9334 217.671 48.0954 217.713 48.2498C217.755 48.4042 217.828 48.5474 217.927 48.6694C218.027 48.7914 218.15 48.8893 218.29 48.9565C218.429 49.0237 218.58 49.0585 218.734 49.0585H223.993C224.867 49.0585 225.608 48.3952 225.743 47.4921L230.901 13.2848C230.925 13.1262 230.916 12.9641 230.874 12.8096C230.833 12.6551 230.76 12.5118 230.66 12.3897C230.561 12.2675 230.437 12.1694 230.298 12.102C230.159 12.0346 230.007 11.9996 229.854 11.9993H223.965C223.712 12.0002 223.468 12.0954 223.276 12.2676C223.084 12.4399 222.957 12.6781 222.917 12.9395Z" fill="#179BD7"/>
<path d="M13.8374 54.3591L14.7805 48.2451L12.6797 48.1954H2.64799L9.6195 3.08059C9.64025 2.94274 9.70885 2.8171 9.81279 2.72656C9.91673 2.63602 10.0491 2.58661 10.1857 2.58735H27.1005C32.716 2.58735 36.5912 3.77996 38.6145 6.13389C39.563 7.23816 40.1671 8.39212 40.4593 9.66202C40.7658 10.9945 40.7712 12.5865 40.4719 14.5282L40.4503 14.6699V15.914L41.3988 16.4625C42.1229 16.8369 42.7738 17.3434 43.3193 17.9569C44.1308 18.9011 44.6555 20.101 44.8773 21.5237C45.1063 22.9868 45.0306 24.7279 44.6555 26.699C44.2227 28.9665 43.5231 30.9413 42.5781 32.5572C41.7444 34.0048 40.6235 35.2585 39.2871 36.2381C38.0321 37.1472 36.5407 37.8374 34.8547 38.2791C33.2209 38.7135 31.3581 38.9325 29.315 38.9325H27.9986C27.0573 38.9325 26.143 39.2785 25.4253 39.8987C24.7086 40.5256 24.2332 41.3917 24.0836 42.3428L23.9845 42.8931L22.3182 53.6689L22.2425 54.0646C22.2227 54.1898 22.1884 54.2523 22.1379 54.2947C22.089 54.3355 22.028 54.3582 21.9648 54.3591H13.8374Z" fill="#253B80"/>
<path d="M42.7564 14.353C42.7054 14.6899 42.6471 15.0342 42.5816 15.388C40.3294 27.3392 32.6244 31.4678 22.7838 31.4678H17.7733C16.5699 31.4678 15.5557 32.371 15.3682 33.5979L12.8029 50.4134L12.0765 55.18C12.0475 55.369 12.0586 55.5624 12.1089 55.7466C12.1591 55.9308 12.2474 56.1016 12.3677 56.2472C12.488 56.3928 12.6373 56.5097 12.8055 56.5899C12.9736 56.6701 13.1566 56.7116 13.3418 56.7117H22.2285C23.2808 56.7117 24.1747 55.9214 24.3404 54.8488L24.4278 54.3821L26.101 43.4076L26.2084 42.8054C26.3723 41.7291 27.268 40.9387 28.3204 40.9387H29.6495C38.2593 40.9387 44.9994 37.3257 46.9694 26.8706C47.7923 22.503 47.3663 18.8561 45.1888 16.2913C44.4986 15.4978 43.6743 14.841 42.7564 14.353Z" fill="#179BD7"/>
<path d="M40.224 12.8405C39.4825 12.6242 38.7282 12.4554 37.9657 12.335C36.4589 12.1015 34.936 11.9895 33.4115 12H19.6101C19.0849 11.9995 18.5768 12.1887 18.1778 12.5331C17.7788 12.8775 17.5151 13.3546 17.4344 13.878L14.4984 32.6315L14.414 33.1786C14.5054 32.5816 14.8058 32.0374 15.2606 31.6443C15.7155 31.2512 16.2948 31.0353 16.8938 31.0356H22.0599C32.2063 31.0356 40.1508 26.8801 42.4729 14.8586C42.5423 14.5027 42.6005 14.1563 42.6531 13.8174C42.0403 13.4933 41.4017 13.2217 40.744 13.0052C40.5715 12.9475 40.3982 12.8926 40.224 12.8405Z" fill="#222D65"/>
<path d="M17.8597 14.4144C17.9376 13.9051 18.1941 13.4407 18.5827 13.1058C18.9712 12.7708 19.4661 12.5875 19.9773 12.5891H33.4099C35.0013 12.5891 36.4867 12.6941 37.8424 12.9151C38.7598 13.0605 39.6645 13.2779 40.5483 13.5653C41.2151 13.7882 41.8345 14.0516 42.4064 14.3555C43.0788 10.0325 42.4009 7.08916 40.0824 4.42391C37.5263 1.48975 32.913 0.233566 27.0097 0.233566H9.87181C8.66595 0.233566 7.63731 1.11768 7.45095 2.32045L0.3126 47.9354C0.279351 48.1472 0.292001 48.3637 0.349681 48.5701C0.40736 48.7765 0.5087 48.9678 0.646729 49.1309C0.784759 49.294 0.956201 49.4251 1.14926 49.5151C1.34233 49.605 1.55243 49.6518 1.76512 49.652H12.3457L15.0022 32.6604L17.8597 14.4144Z" fill="#253B80"/>
</svg>
