<svg width="107" height="83" viewBox="0 0 107 83" fill="none" xmlns="http://www.w3.org/2000/svg">
<path d="M105.433 0H51.0106C50.1454 0 49.4432 0.700794 49.4432 1.56738C49.4432 2.43258 50.1454 3.13477 51.0106 3.13477H103.865V15.0304H3.13477V3.13477H43.8683C44.7335 3.13477 45.4357 2.43258 45.4357 1.56738C45.4357 0.700794 44.7335 0 43.8683 0H1.56738C0.702188 0 0 0.700794 0 1.56738V80.5331C0 81.3983 0.702188 82.1005 1.56738 82.1005H66.8566C67.7218 82.1005 68.424 81.3983 68.424 80.5331C68.424 79.6679 67.7218 78.9657 66.8566 78.9657H3.13477V73.1295H103.865V78.9657H73.9989C73.1337 78.9657 72.4315 79.6679 72.4315 80.5331C72.4315 81.3983 73.1337 82.1005 73.9989 82.1005H105.433C106.298 82.1005 107 81.3983 107 80.5331V1.56738C107 0.701909 106.298 0 105.433 0ZM103.865 69.9956H3.13477V18.1652H103.865V69.9956Z" fill="#FF5700"/>
<path d="M10.7377 7.51562H10.7159C9.84963 7.51562 9.14856 8.2167 9.14856 9.08301C9.14856 9.94848 9.84963 10.6504 10.7159 10.6504H10.7377C11.6032 10.6504 12.3051 9.94848 12.3051 9.08301C12.3051 8.2167 11.6032 7.51562 10.7377 7.51562Z" fill="#FF5700"/>
<path d="M16.5521 7.51562H16.5303C15.664 7.51562 14.963 8.2167 14.963 9.08301C14.963 9.94848 15.664 10.6504 16.5303 10.6504H16.5521C17.4175 10.6504 18.1195 9.94848 18.1195 9.08301C18.1195 8.2167 17.4175 7.51562 16.5521 7.51562Z" fill="#FF5700"/>
<path d="M22.3669 7.51562H22.3441C21.4786 7.51562 20.7764 8.2167 20.7764 9.08301C20.7764 9.94848 21.4786 10.6504 22.3441 10.6504H22.3669C23.2321 10.6504 23.9343 9.94848 23.9343 9.08301C23.9343 8.2167 23.2321 7.51562 22.3669 7.51562Z" fill="#FF5700"/>
<path d="M97.1114 7.51562H79.6395C78.7743 7.51562 78.0721 8.2167 78.0721 9.08301C78.0721 9.94848 78.7743 10.6504 79.6395 10.6504H97.1114C97.9766 10.6504 98.6788 9.94848 98.6788 9.08301C98.6788 8.2167 97.9766 7.51562 97.1114 7.51562Z" fill="#FF5700"/>
<path d="M74.0284 7.51562H70.1816C69.3164 7.51562 68.6143 8.2167 68.6143 9.08301C68.6143 9.94848 69.3164 10.6504 70.1816 10.6504H74.0284C74.8947 10.6504 75.5957 9.94848 75.5957 9.08301C75.5957 8.2167 74.8947 7.51562 74.0284 7.51562Z" fill="#FF5700"/>
<path d="M90.0255 39.009H82.7763C81.91 39.009 81.2089 39.7098 81.2089 40.5764C81.2089 41.4416 81.91 42.1438 82.7763 42.1438H88.4581V53.1874H20.4164V42.1438H75.634C76.4992 42.1438 77.2014 41.4416 77.2014 40.5764C77.2014 39.7098 76.4992 39.009 75.634 39.009H18.8491C17.9836 39.009 17.2817 39.7098 17.2817 40.5764V54.7548C17.2817 55.6211 17.9836 56.3221 18.8491 56.3221H90.0255C90.8907 56.3221 91.5929 55.6211 91.5929 54.7548V40.5764C91.5929 39.7109 90.891 39.009 90.0255 39.009Z" fill="#FF5700"/>
<path d="M31.4109 44.5628C30.7099 43.8606 29.777 43.4744 28.7844 43.4744C27.7916 43.4744 26.859 43.8608 26.1568 44.5628C25.1054 45.6141 24.8212 47.1447 25.2969 48.4593L24.4164 49.3399C23.8047 49.9526 23.8047 50.9443 24.4164 51.557C24.7223 51.863 25.1239 52.0163 25.5246 52.0163C25.9261 52.0163 26.3265 51.8627 26.6336 51.557L27.5118 50.6776C27.9148 50.8245 28.3425 50.905 28.7844 50.905C29.777 50.905 30.7099 50.5185 31.4109 49.8166C32.8596 48.3679 32.8596 46.0114 31.4109 44.5628ZM29.1946 47.5994C29.0466 47.7474 28.8736 47.7702 28.7844 47.7702C28.6941 47.7702 28.5208 47.7474 28.374 47.5994C28.1477 47.3729 28.1477 47.0051 28.374 46.7788C28.5208 46.6309 28.6941 46.6091 28.7844 46.6091C28.8736 46.6091 29.0463 46.6309 29.1946 46.7788C29.4211 47.0051 29.4211 47.374 29.1946 47.5994Z" fill="#FF5700"/>
<path d="M50.0147 59.0188H32.9705C32.1055 59.0188 31.4031 59.721 31.4031 60.5862C31.4031 61.4514 32.1055 62.1536 32.9705 62.1536H50.0147C50.8812 62.1536 51.582 61.4514 51.582 60.5862C51.582 59.721 50.8812 59.0188 50.0147 59.0188Z" fill="#FF5700"/>
<path d="M74.0284 59.0188H56.9853C56.119 59.0188 55.4179 59.721 55.4179 60.5862C55.4179 61.4514 56.119 62.1536 56.9853 62.1536H74.0284C74.8947 62.1536 75.5958 61.4514 75.5958 60.5862C75.5958 59.721 74.8947 59.0188 74.0284 59.0188Z" fill="#FF5700"/>
<path d="M68.4891 25.4807H38.5096C37.6444 25.4807 36.9423 26.1829 36.9423 27.0481V34.3625C36.9423 35.2277 37.6444 35.9299 38.5096 35.9299H68.4891C69.3554 35.9299 70.0565 35.2277 70.0565 34.3625V27.0481C70.0565 26.1829 69.3554 25.4807 68.4891 25.4807ZM66.9218 32.7952H40.077V28.6155H66.9218V32.7952Z" fill="#FF5700"/>
</svg>
