<svg width="93" height="93" viewBox="0 0 93 93" fill="none" xmlns="http://www.w3.org/2000/svg">
<path d="M63.6624 44.55C64.4817 44.55 65.1459 43.8858 65.1459 43.0665C65.1459 42.2472 64.4817 41.583 63.6624 41.583C62.8431 41.583 62.1789 42.2472 62.1789 43.0665C62.1789 43.8858 62.8431 44.55 63.6624 44.55Z" fill="#FF5700"/>
<path d="M48.2112 52.3621V53.8512V55.4411C57.2451 55.626 62.7365 57.4024 63.5571 58.5017C62.6904 59.6624 56.6249 61.5807 46.6717 61.5807C36.7187 61.5807 30.6532 59.6624 29.7863 58.5017C30.607 57.4024 36.0985 55.626 45.1322 55.4411V53.8512V52.3621C37.627 52.5316 26.658 53.9618 26.658 58.5017V86.213C26.658 91.0748 39.2374 92.371 46.6717 92.371C54.1062 92.371 66.6854 91.0748 66.6854 86.213V58.5017C66.6854 53.9616 55.7164 52.5316 48.2112 52.3621ZM46.6717 89.292C36.3956 89.292 30.2635 87.2475 29.737 86.213V80.5229C33.9383 82.512 41.5328 83.1339 46.6717 83.1339C51.8139 83.1339 59.4145 82.512 63.6141 80.5198L63.625 86.1037C63.0799 87.2475 56.948 89.292 46.6717 89.292ZM46.6717 80.0549C36.3956 80.0549 30.2635 78.0104 29.737 76.9759V71.2858C33.9383 73.2749 41.5328 73.8968 46.6717 73.8968C51.8139 73.8968 59.4145 73.2749 63.6141 71.2827L63.625 76.8666C63.0799 78.0104 56.948 80.0549 46.6717 80.0549ZM46.6717 70.8178C36.3956 70.8178 30.2635 68.7733 29.737 67.7388V62.0487C33.9383 64.0378 41.5328 64.6597 46.6717 64.6597C51.8139 64.6597 59.4145 64.0378 63.6141 62.0456L63.625 67.6295C63.0799 68.7733 56.948 70.8178 46.6717 70.8178Z" fill="#FF5700"/>
<path d="M60.5273 29.2508V6.15807C60.5273 2.1153 53.5579 0 46.6717 0C39.7856 0 32.816 2.1153 32.816 6.15807V29.2508C32.816 32.9919 38.7849 35.0779 45.1321 35.3704H48.2112C54.5586 35.0794 60.5273 32.9919 60.5273 29.2508ZM46.6717 3.07903C53.6719 3.07903 57.4483 5.26361 57.4483 6.15807C57.4483 7.05253 53.6719 9.2371 46.6717 9.2371C39.6715 9.2371 35.895 7.05253 35.895 6.15807C35.895 5.26361 39.6715 3.07903 46.6717 3.07903ZM35.895 10.1608C38.5678 11.5818 42.6289 12.3161 46.6717 12.3161C50.7146 12.3161 54.7757 11.5818 57.4483 10.1608V13.8557C57.4483 14.7501 53.6719 16.9347 46.6717 16.9347C39.6715 16.9347 35.895 14.7501 35.895 13.8557V10.1608ZM35.895 17.8584C38.5678 19.2794 42.6289 20.0137 46.6717 20.0137C50.7146 20.0137 54.7757 19.2794 57.4483 17.8584V21.5532C57.4483 22.4477 53.6719 24.6323 46.6717 24.6323C39.6715 24.6323 35.895 22.4477 35.895 21.5532V17.8584ZM35.895 29.2508V25.556C38.5678 26.977 42.6289 27.7113 46.6717 27.7113C50.7146 27.7113 54.7757 26.977 57.4483 25.556V29.2508C57.4483 30.1453 53.6719 32.3299 46.6717 32.3299C39.6715 32.3299 35.895 30.1453 35.895 29.2508Z" fill="#FF5700"/>
<path d="M27.7113 29.4129V6.32018C27.7113 2.27741 20.7419 0.162109 13.8557 0.162109C6.96959 0.162109 0 2.27741 0 6.32018V29.4129C0 33.154 5.9689 35.24 12.3161 35.5325H15.3952C21.7426 35.2416 27.7113 33.154 27.7113 29.4129ZM13.8557 3.24114C20.8558 3.24114 24.6323 5.42572 24.6323 6.32018C24.6323 7.21464 20.8558 9.39921 13.8557 9.39921C6.85547 9.39921 3.07903 7.21464 3.07903 6.32018C3.07903 5.42572 6.85547 3.24114 13.8557 3.24114ZM3.07903 10.3229C5.75183 11.7439 9.81288 12.4782 13.8557 12.4782C17.8986 12.4782 21.9597 11.7439 24.6323 10.3229V14.0178C24.6323 14.9122 20.8558 17.0968 13.8557 17.0968C6.85547 17.0968 3.07903 14.9122 3.07903 14.0178V10.3229ZM3.07903 18.0205C5.75183 19.4415 9.81288 20.1758 13.8557 20.1758C17.8986 20.1758 21.9597 19.4415 24.6323 18.0205V21.7154C24.6323 22.6098 20.8558 24.7944 13.8557 24.7944C6.85547 24.7944 3.07903 22.6098 3.07903 21.7154V18.0205ZM3.07903 29.4129V25.7181C5.75183 27.1391 9.81288 27.8734 13.8557 27.8734C17.8986 27.8734 21.9597 27.1391 24.6323 25.7181V29.4129C24.6323 30.3074 20.8558 32.492 13.8557 32.492C6.85547 32.492 3.07903 30.3074 3.07903 29.4129Z" fill="#FF5700"/>
<path d="M53.8399 44.6462H54.3693H58.7792C59.6294 44.6462 60.3187 43.9569 60.3187 43.1067C60.3187 42.2565 59.6294 41.5671 58.7792 41.5671H54.3693H53.8399H48.2112V44.6462H53.8399Z" fill="#FF5700"/>
<path d="M45.1322 35.3706V41.5672V44.6462V52.3623V53.8514V55.4413V56.0323V58.5018V58.7909C45.1322 59.6411 45.8215 60.3304 46.6717 60.3304C47.5219 60.3304 48.2112 59.6411 48.2112 58.7909V58.5018V56.0323V55.4413V53.8514V52.3623V44.6462V41.5672V35.3706H45.1322Z" fill="#FF5700"/>
<path d="M79.0016 0C72.1155 0 65.1459 2.1153 65.1459 6.15807V29.2508C65.1459 33.2936 72.1155 35.4089 79.0016 35.4089V35.3704H82.0806V35.2611C87.8199 34.7253 92.8572 32.687 92.8572 29.2508V6.15807C92.8572 2.1153 85.8878 0 79.0016 0ZM89.7782 29.2508C89.7782 30.1453 86.0019 32.3299 79.0016 32.3299C72.0014 32.3299 68.2249 30.1453 68.2249 29.2508V25.556C70.8977 26.977 74.9588 27.7113 79.0016 27.7113C83.0445 27.7113 87.1056 26.977 89.7782 25.556V29.2508ZM89.7782 21.5532C89.7782 22.4477 86.0019 24.6323 79.0016 24.6323C72.0014 24.6323 68.2249 22.4477 68.2249 21.5532V17.8584C70.8977 19.2794 74.9588 20.0137 79.0016 20.0137C83.0445 20.0137 87.1056 19.2794 89.7782 17.8584V21.5532ZM89.7782 13.8557C89.7782 14.7501 86.0019 16.9347 79.0016 16.9347C72.0014 16.9347 68.2249 14.7501 68.2249 13.8557V10.1608C70.8977 11.5818 74.9588 12.3161 79.0016 12.3161C83.0445 12.3161 87.1056 11.5818 89.7782 10.1608V13.8557ZM79.0016 9.2371C72.0014 9.2371 68.2249 7.05253 68.2249 6.15807C68.2249 5.26361 72.0014 3.07903 79.0016 3.07903C86.0019 3.07903 89.7782 5.26361 89.7782 6.15807C89.7782 7.05253 86.0019 9.2371 79.0016 9.2371Z" fill="#FF5700"/>
<path d="M79.0015 35.3706V35.4091V39.2257V41.5672H75.9544H75.9225H71.0151C70.1649 41.5672 69.4756 42.2565 69.4756 43.1067C69.4756 43.9569 70.1649 44.6462 71.0151 44.6462H75.9225H75.9544H80.541C81.3908 44.6462 82.0805 43.9565 82.0805 43.1067V39.2257V35.3706H79.0015Z" fill="#FF5700"/>
<path d="M14.3418 41.5669V35.4088L11.2628 35.261V41.5669V43.1064C11.2628 43.9562 11.9525 44.6459 12.8023 44.6459H45.1322V41.5669H14.3418Z" fill="#FF5700"/>
</svg>
