<svg width="94" height="101" viewBox="0 0 94 101" fill="none" xmlns="http://www.w3.org/2000/svg">
<path d="M68.833 38.4627C69.7034 38.4627 70.4091 37.7572 70.4091 36.8855V13.3462C70.4091 12.4758 69.7036 11.7703 68.833 11.7703H51.9136V8.30148C51.9136 7.43106 51.2081 6.72528 50.3374 6.72528H45.7719C43.8711 2.66054 39.7563 0 35.2039 0C30.6518 0 26.537 2.66054 24.6362 6.72528H20.0718C19.2011 6.72528 18.4956 7.43105 18.4956 8.30252V11.7703H1.57618C0.705762 11.7703 0 12.4758 0 13.3462V99.0986C0 99.969 0.704714 100.675 1.57618 100.675H53.42C53.8327 100.675 54.2425 100.506 54.5343 100.214L69.9472 84.8009C70.239 84.5081 70.4091 84.0994 70.4091 83.6856V43.6121C70.4091 42.7414 69.7036 42.0349 68.8319 42.0349C67.9615 42.0349 67.2557 42.7404 67.2557 43.6121V82.1095H53.42C52.5496 82.1095 51.8428 82.815 51.8428 83.6856V97.5214H3.15239V14.9224H18.4956V20.0718C18.4956 20.9422 19.2011 21.6477 20.0718 21.6477H50.3374C51.2078 21.6477 51.9136 20.9422 51.9136 20.0718V14.9224H67.2568V36.8855C67.2557 37.7562 67.9625 38.4627 68.833 38.4627ZM54.9962 85.2618H65.0275L54.9962 95.2931V85.2618ZM48.7612 18.4956H21.6477V9.87871H25.692C26.3597 9.87871 26.9559 9.45792 27.178 8.82792C28.3782 5.43303 31.6043 3.15316 35.2039 3.15316C38.8049 3.15316 42.0299 5.43408 43.2301 8.82792C43.4532 9.45766 44.0483 9.87871 44.7161 9.87871H48.7612V18.4956Z" fill="#FF5700"/>
<path d="M55.3811 63.8933H35.2039C34.3335 63.8933 33.628 64.5988 33.628 65.4705C33.628 66.341 34.3335 67.0467 35.2039 67.0467H55.3811C56.2515 67.0467 56.9573 66.3412 56.9573 65.4705C56.9573 64.5988 56.2518 63.8933 55.3811 63.8933Z" fill="#FF5700"/>
<path d="M55.3811 70.6187H35.2039C34.3335 70.6187 33.628 71.3252 33.628 72.1959C33.628 73.0666 34.3335 73.7721 35.2039 73.7721H55.3811C56.2515 73.7721 56.9573 73.0666 56.9573 72.1959C56.9573 71.3252 56.2518 70.6187 55.3811 70.6187Z" fill="#FF5700"/>
<path d="M55.3811 77.3452H35.2039C34.3335 77.3452 33.628 78.0507 33.628 78.9214C33.628 79.7921 34.3335 80.4976 35.2039 80.4976H55.3811C56.2515 80.4976 56.9573 79.7921 56.9573 78.9214C56.9573 78.0507 56.2518 77.3452 55.3811 77.3452Z" fill="#FF5700"/>
<path d="M25.1155 70.6191H18.3902C17.4049 70.6191 16.6029 69.8181 16.6029 68.8329V65.4697C16.6029 64.4845 17.4049 63.6835 18.3902 63.6835H28.4786C29.349 63.6835 30.0548 62.978 30.0548 62.1073C30.0548 61.2359 29.349 60.5301 28.4786 60.5301H23.3293V58.7439C23.3293 57.8735 22.6238 57.1677 21.7534 57.1677C20.8819 57.1677 20.1761 57.8732 20.1761 58.7439V60.5301H18.3902C15.6659 60.5301 13.4508 62.7463 13.4508 65.4695V68.8326C13.4508 71.5558 15.6659 73.772 18.3902 73.772H25.1155C26.1007 73.772 26.9024 74.5729 26.9024 75.5582V78.9213C26.9024 79.9066 26.1007 80.7075 25.1155 80.7075H15.027C14.1563 80.7075 13.4508 81.413 13.4508 82.2837C13.4508 83.1544 14.1561 83.8609 15.027 83.8609H20.1761V85.6472C20.1761 86.5176 20.8819 87.2233 21.7534 87.2233C22.6238 87.2233 23.3293 86.5178 23.3293 85.6472V83.8609H25.1165C27.8397 83.8609 30.0548 81.6448 30.0548 78.9216V75.5584C30.0548 72.8352 27.8397 70.6191 25.1155 70.6191Z" fill="#FF5700"/>
<path d="M53.6995 25.2207H16.7086C15.8379 25.2207 15.1324 25.9265 15.1324 26.7979V52.0188C15.1324 52.8892 15.8379 53.595 16.7086 53.595H53.6995C54.5699 53.595 55.2757 52.8895 55.2757 52.0188V26.7979C55.2757 25.9275 54.571 25.2207 53.6995 25.2207ZM23.3293 28.3741H25.2209V35.3094H23.3293V28.3741ZM30.2648 50.4426H18.2845V28.3741H20.1761V36.8853C20.1761 37.756 20.8819 38.4626 21.7534 38.4626H26.7971C27.6675 38.4626 28.3733 37.7571 28.3733 36.8853V28.3741H30.2648V50.4426ZM52.1236 50.4426H33.418V28.3741H52.1236V50.4426Z" fill="#FF5700"/>
<path d="M48.6558 31.9473H38.5673C37.6967 31.9473 36.9911 32.653 36.9911 33.5234C36.9911 34.3941 37.6956 35.0996 38.5673 35.0996H48.6558C49.5262 35.0996 50.232 34.3941 50.232 33.5234C50.232 32.653 49.5262 31.9473 48.6558 31.9473Z" fill="#FF5700"/>
<path d="M40.0214 43.0089C39.7789 42.4007 39.1407 42.0043 38.4895 42.037C37.8023 42.0719 37.2072 42.5624 37.0384 43.2281C36.6881 44.6208 38.3246 45.7371 39.4921 44.8871C40.0738 44.4643 40.3011 43.6735 40.0214 43.0089Z" fill="#FF5700"/>
<path d="M45.0653 43.009C44.8275 42.412 44.2111 42.0206 43.5719 42.0371C42.9299 42.0523 42.3421 42.4734 42.1271 43.0806C41.9079 43.7032 42.1025 44.4111 42.6114 44.8298C43.1399 45.265 43.9162 45.303 44.4857 44.9231C45.102 44.5123 45.354 43.693 45.0653 43.009Z" fill="#FF5700"/>
<path d="M50.1122 43.0086C49.5836 41.752 47.7219 41.7305 47.1997 43.0086C46.9393 43.6447 47.1258 44.3932 47.6564 44.8294C48.1634 45.2473 48.8986 45.3006 49.462 44.9647C50.1305 44.5673 50.3987 43.7265 50.1122 43.0086Z" fill="#FF5700"/>
<path d="M22.6269 42.3001C22.0315 41.8985 21.2086 41.9682 20.6832 42.4548C20.2301 42.8745 20.0615 43.5392 20.2629 44.123C20.48 44.7528 21.0854 45.1869 21.7534 45.188C22.419 45.189 23.026 44.7507 23.2422 44.123C23.4748 43.4492 23.2116 42.7005 22.6269 42.3001Z" fill="#FF5700"/>
<path d="M28.2534 43.0086C27.7228 41.7467 25.8703 41.7326 25.3407 43.0086C25.0746 43.6506 25.2741 44.4199 25.821 44.8488C26.3301 45.2483 27.048 45.2955 27.603 44.9647C28.2728 44.5672 28.5402 43.7264 28.2534 43.0086Z" fill="#FF5700"/>
<path d="M35.2039 5.0437C32.481 5.0437 30.2648 7.25986 30.2648 9.98306C30.2648 12.7073 32.481 14.9224 35.2039 14.9224C37.9282 14.9224 40.1433 12.7073 40.1433 9.98306C40.1433 7.25986 37.9282 5.0437 35.2039 5.0437ZM35.2039 11.7703C34.2189 11.7703 33.418 10.9683 33.418 9.98306C33.418 8.99782 34.2189 8.19713 35.2039 8.19713C36.1892 8.19713 36.9912 8.99782 36.9912 9.98306C36.9912 10.9683 36.1892 11.7703 35.2039 11.7703Z" fill="#FF5700"/>
<path d="M92.3722 67.257C91.5018 67.257 90.796 67.9625 90.796 68.8332V89.0103C90.796 89.9956 89.9941 90.7965 89.0091 90.7965H87.3285C87.2926 90.7965 87.2577 90.7997 87.2231 90.8025V31.842C87.2231 31.6556 87.1883 31.4632 87.1227 31.2891L82.1794 18.1046V13.3467C82.1794 12.4763 81.4739 11.7708 80.6022 11.7708C79.7318 11.7708 79.026 12.4763 79.026 13.3467V18.1046L74.0827 31.2891C74.0172 31.4632 73.9823 31.6556 73.9823 31.842V95.7356C73.9823 98.4599 76.1974 100.675 78.9206 100.675H82.2838C85.007 100.675 87.2231 98.4599 87.2231 95.7356V93.9444C87.258 93.9465 87.2929 93.9497 87.3275 93.9497H89.0091C91.7333 93.9497 93.9484 91.7335 93.9484 89.0103V68.8332C93.9484 67.9625 93.2427 67.257 92.3722 67.257ZM80.6022 22.8801L83.3723 30.2658H77.8329L80.6022 22.8801ZM84.0707 95.7356C84.0707 96.7209 83.2688 97.5226 82.2838 97.5226H78.9216C77.9364 97.5226 77.1347 96.7206 77.1347 95.7356V73.7725H84.071V95.7356H84.0707ZM84.0707 70.6191H77.1344V33.4182H84.0707V70.6191Z" fill="#FF5700"/>
<path d="M81.5526 38.9922C81.0445 38.607 80.339 38.5742 79.7932 38.8988C79.1254 39.2952 78.8601 40.136 79.1459 40.8517C79.3876 41.4222 79.9489 41.8105 80.5694 41.8247C81.2403 41.8391 81.8599 41.4099 82.0851 40.7802C82.3145 40.1392 82.0953 39.4038 81.5526 38.9922Z" fill="#FF5700"/>
<path d="M81.5526 44.0371C80.3943 43.1583 78.7138 44.2675 79.0753 45.6796C79.2515 46.3699 79.8894 46.8696 80.6022 46.8696C81.2689 46.8696 81.8761 46.4334 82.0924 45.8047C82.3113 45.1686 82.0879 44.4427 81.5526 44.0371Z" fill="#FF5700"/>
<path d="M81.5526 49.0817C81.0416 48.6987 80.3422 48.6607 79.7932 48.9876C79.1254 49.3837 78.8601 50.2235 79.1459 50.9405C79.3876 51.511 79.9489 51.899 80.5694 51.9124C81.2403 51.9279 81.8588 51.4987 82.0851 50.8689C82.3145 50.2308 82.0974 49.4894 81.5526 49.0817Z" fill="#FF5700"/>
<path d="M80.6022 53.8049C79.7318 53.8049 79.0261 54.5104 79.0261 55.3822V63.789C79.0261 64.6595 79.7316 65.3652 80.6022 65.3652C81.4737 65.3652 82.1795 64.6597 82.1795 63.789V55.3822C82.1792 54.5107 81.4737 53.8049 80.6022 53.8049Z" fill="#FF5700"/>
</svg>
