<svg width="98" height="100" viewBox="0 0 98 100" fill="none" xmlns="http://www.w3.org/2000/svg">
<path d="M97.3247 6.7705C97.0746 6.47396 96.7161 6.28759 96.3293 6.25519L74.6655 4.4041L74.2736 1.28236C74.1722 0.479566 73.4371 -0.0896688 72.6364 0.011685L52.5411 2.53801C52.461 2.51675 52.3801 2.50147 52.2961 2.49447L24.6742 0.13506C23.8795 0.0653306 23.1573 0.676827 23.0896 1.47081L22.6775 6.29146L1.28302 8.98188C0.491114 9.08116 -0.0879882 9.82641 0.0110327 10.6183L10.9326 97.4843C10.9824 97.8801 10.8974 98.2609 11.0594 98.6438C11.2862 99.1803 11.8267 99.5388 12.4091 99.5388H84.3245C85.1345 99.5388 85.7906 98.8827 85.7906 98.0737V96.1641L88.6288 96.4072C89.4235 96.4762 90.1457 95.8655 90.2134 95.0717L97.6638 7.84003C97.6972 7.45301 97.5756 7.06834 97.3247 6.7705ZM10.9435 74.0746L3.10219 11.7065L10.9435 10.7212V74.0746ZM25.885 3.18086L38.7132 4.27554L25.652 5.91794L25.885 3.18086ZM71.5477 3.1031L72.2971 9.05887H24.1698L71.5477 3.1031ZM87.4177 93.3612L85.7906 93.2225V50.3897C85.7906 49.5804 85.1345 48.9246 84.3245 48.9246C83.5144 48.9246 82.8594 49.5807 82.8594 50.3897V96.6073H13.8753V11.9904H82.8594V43.5511C82.8594 44.3601 83.5155 45.0162 84.3245 45.0162C85.1345 45.0162 85.7906 44.3601 85.7906 43.5511V10.5242C85.7906 9.71495 85.1345 9.05887 84.3245 9.05887H75.2508L75.0401 7.37811L94.619 9.05083L87.4177 93.3612Z" fill="#FF5700"/>
<path d="M76.5073 16.8757H68.6903C68.2001 16.8757 67.7426 17.1199 67.4712 17.5279L64.154 22.5046C60.5828 19.9469 56.2114 18.4393 51.4939 18.4393C50.6838 18.4393 50.0277 19.0944 50.0277 19.9044V40.2286C50.0277 41.0376 50.6838 41.6939 51.4939 41.6939H71.817C72.6271 41.6939 73.2831 41.0376 73.2831 40.2286C73.2831 33.9882 70.6453 28.3533 66.4281 24.377L69.475 19.8072H76.5073C77.3173 19.8072 77.9734 19.1511 77.9734 18.3411C77.9734 17.5321 77.3173 16.8757 76.5073 16.8757ZM70.2951 38.7625H52.959V21.4263C56.5141 21.7008 59.7927 22.9684 62.5256 24.947L61.2174 26.9085C60.8094 27.521 60.9288 28.3694 61.4929 28.8433C62.1542 29.3982 63.1789 29.2515 63.6569 28.5345L64.7756 26.8556C67.8924 29.9512 69.9366 34.124 70.2951 38.7625Z" fill="#FF5700"/>
<path d="M76.5073 65.34H63.2496L60.9136 61.6016C64.6976 57.6809 67.0295 52.3488 67.0295 46.4817C67.0295 45.6717 66.3734 45.0156 65.5634 45.0156H46.7054V26.1575C46.7054 25.3475 46.0493 24.6914 45.2403 24.6914C33.225 24.6914 23.4507 34.4667 23.4507 46.4817C23.4507 58.4959 33.225 68.2712 45.2403 68.2712C50.3183 68.2712 54.9964 66.5246 58.7053 63.6001L61.1943 67.5825C61.4626 68.0107 61.9315 68.271 62.4367 68.271H76.5073C77.3173 68.271 77.9734 67.6149 77.9734 66.8048C77.9734 65.9961 77.3173 65.34 76.5073 65.34ZM55.863 53.5213C55.4347 52.8349 54.5293 52.6262 53.8439 53.0554C53.1575 53.4847 52.9488 54.3891 53.3771 55.0755L57.1417 61.0982C53.8934 63.7482 49.7488 65.3397 45.24 65.3397C34.842 65.3397 26.3819 56.8797 26.3819 46.4817C26.3819 36.5757 34.0581 28.4298 43.7738 27.6794V46.4817C43.7738 47.2907 44.4299 47.9471 45.24 47.9471H64.0413C63.7141 52.1855 61.9797 56.0354 59.3053 59.0294L55.863 53.5213Z" fill="#FF5700"/>
<path d="M32.733 73.1572H20.2258C19.4168 73.1572 18.7604 73.8123 18.7604 74.6223C18.7604 75.4324 19.4168 76.0885 20.2258 76.0885H32.733C33.5421 76.0885 34.1981 75.4324 34.1981 74.6223C34.1981 73.8123 33.5421 73.1572 32.733 73.1572Z" fill="#FF5700"/>
<path d="M51.4939 73.1572H38.9867C38.1776 73.1572 37.5213 73.8123 37.5213 74.6223C37.5213 75.4324 38.1776 76.0885 38.9867 76.0885H51.4939C52.3029 76.0885 52.959 75.4324 52.959 74.6223C52.959 73.8123 52.3029 73.1572 51.4939 73.1572Z" fill="#FF5700"/>
<path d="M40.55 80.9746H20.2258C19.4168 80.9746 18.7604 81.6296 18.7604 82.4397C18.7604 83.2498 19.4168 83.9058 20.2258 83.9058H40.55C41.359 83.9058 42.0151 83.2498 42.0151 82.4397C42.0151 81.6296 41.359 80.9746 40.55 80.9746Z" fill="#FF5700"/>
<path d="M51.4939 80.9746H46.8036C45.9935 80.9746 45.3375 81.6296 45.3375 82.4397C45.3375 83.2498 45.9935 83.9058 46.8036 83.9058H51.4939C52.3029 83.9058 52.959 83.2498 52.959 82.4397C52.959 81.6296 52.3029 80.9746 51.4939 80.9746Z" fill="#FF5700"/>
<path d="M26.4794 88.7905H20.2258C19.4168 88.7905 18.7604 89.4466 18.7604 90.2567C18.7604 91.0657 19.4168 91.7217 20.2258 91.7217H26.4794C27.2895 91.7217 27.9455 91.0657 27.9455 90.2567C27.9455 89.4466 27.2895 88.7905 26.4794 88.7905Z" fill="#FF5700"/>
<path d="M51.4939 88.7905H32.733C31.924 88.7905 31.2677 89.4466 31.2677 90.2567C31.2677 91.0657 31.924 91.7217 32.733 91.7217H51.4939C52.3029 91.7217 52.959 91.0657 52.959 90.2567C52.959 89.4466 52.3029 88.7905 51.4939 88.7905Z" fill="#FF5700"/>
</svg>
