<svg width="92" height="31" viewBox="0 0 92 31" fill="none" xmlns="http://www.w3.org/2000/svg">
<path fill-rule="evenodd" clip-rule="evenodd" d="M13.9543 18.3162C12.6659 18.9375 10.8212 19.4854 9.0703 19.4854C7.6836 19.4854 6.59389 19.0603 5.96666 18.2429C5.63567 17.7855 5.47093 17.0647 5.47093 16.6065C11.9442 16.7705 15.9403 15.2981 15.9403 11.2088C15.9403 8.23183 13.5954 6.43233 10.3263 6.43233C4.48097 6.43233 0.914093 11.5022 0.914093 16.3767C0.914093 20.5319 3.29151 23.1166 7.9156 23.1166C9.39751 23.1166 11.5452 22.8067 13.2145 22.1944L13.9543 18.3162ZM11.481 11.2417C11.481 12.6819 9.63178 13.2052 5.93265 13.173C6.26289 11.6669 7.5181 9.86889 9.73002 9.86889C10.8205 9.86889 11.481 10.4251 11.481 11.2417Z" fill="#3A3A3A"/>
<path fill-rule="evenodd" clip-rule="evenodd" d="M84.1234 9.99888C86.0376 9.99888 86.6663 11.5693 86.6663 13.041C86.6663 15.7896 85.2124 19.5511 82.603 19.5511C80.9525 19.5511 80.0276 18.3085 80.0276 16.4431C79.9951 13.9579 81.381 9.99888 84.1234 9.99888ZM84.7506 6.43282C79.0043 6.43282 75.1065 10.9795 75.1065 16.5412C75.1065 20.5002 77.8474 23.1493 81.9432 23.1493C87.558 23.1493 91.5859 18.8639 91.5859 13.0088C91.5859 9.37759 89.077 6.43282 84.7506 6.43282Z" fill="#FF5700"/>
<path fill-rule="evenodd" clip-rule="evenodd" d="M73.4139 18.7007C72.5886 19.0286 71.5979 19.3557 70.2105 19.3557C68.4278 19.3557 67.0403 18.2433 67.0403 16.0516C67.0403 13.0417 69.1208 10.195 72.5221 10.195C73.4804 10.195 73.9905 10.302 74.5534 10.5296L75.2676 6.78388C74.5739 6.48821 73.9761 6.43282 72.5886 6.43282C66.4456 6.43282 62.0528 10.8814 62.0528 16.5748C62.0528 20.7285 64.8602 23.1171 68.857 23.1171C70.3881 23.1171 71.6614 22.9375 72.6695 22.6014L73.4139 18.7007Z" fill="#FF5700"/>
<path fill-rule="evenodd" clip-rule="evenodd" d="M48.0917 6.79463L51.295 21.2857C51.3608 21.645 51.3608 21.8411 51.196 22.0709C50.6013 23.1496 49.6763 24.0987 48.5866 24.8503C47.6617 25.5052 46.6052 25.8967 45.8457 26.1265L46.9022 30.15C47.9586 29.9875 50.2046 29.2023 52.087 27.435C54.2332 25.4394 56.1489 22.5283 58.2958 18.2758L64.0746 6.79463H59.0553L56.1156 13.8272C55.4226 15.5608 55.0591 16.608 54.6957 17.5565H54.6299C54.4969 16.5422 54.3314 15.3969 54.1017 13.7613L53.1102 6.79463H48.0917Z" fill="#3A3A3A"/>
<path fill-rule="evenodd" clip-rule="evenodd" d="M23.771 4.50314C24.167 4.40508 24.795 4.33921 25.6867 4.33921C27.5359 4.33921 29.0881 5.02637 29.0881 7.15374C29.0881 9.34547 27.2057 11.1772 24.3325 11.1772C23.539 11.1772 23.0108 11.1113 22.5166 11.0132L23.771 4.50314ZM15.6133 22.7901H20.2699L21.7896 14.8413C22.2846 14.9057 22.9458 14.9715 23.7385 14.9715C26.4462 14.9715 29.0223 14.3502 30.839 12.9437C32.5885 11.6031 33.8777 9.50791 33.8777 6.72856C33.8777 4.6012 32.9527 3.06444 31.467 2.05016C29.8483 0.905636 27.5374 0.577774 25.5552 0.577774C22.4811 0.577774 21.1306 0.728231 18.2892 1.63472L17.6809 4.71049L19.0948 4.56153L15.6133 22.7901Z" fill="#3A3A3A"/>
<path fill-rule="evenodd" clip-rule="evenodd" d="M41.4196 16.6638C41.3607 16.958 41.2685 17.2529 41.1499 17.5149C40.6171 18.5284 39.4291 19.3466 38.1739 19.3466C37.051 19.3466 36.3172 18.7253 36.5726 17.449C36.9595 15.5193 39.1306 14.898 41.7665 14.9302L41.4196 16.6638ZM45.3719 22.4875C45.384 21.6042 45.6122 20.1325 45.9198 18.5943L47.0344 13.0326C47.7871 9.27116 46.6997 6.13026 41.3169 6.13026C39.0732 6.13026 37.1621 6.58762 35.8283 7.08092L35.0423 10.7435C36.2303 10.0901 38.0916 9.53315 39.7435 9.53315C42.2199 9.53315 42.4398 10.7435 42.2705 11.5946L42.2237 11.8229C36.5167 11.7908 32.3528 13.7864 31.5208 17.9415C31.01 20.4926 32.4866 22.8483 35.7557 22.8483C37.6714 22.8483 39.4594 22.1611 40.7728 20.8848H40.8718L40.8483 22.489H45.3719V22.4875Z" fill="#3A3A3A"/>
</svg>
