<svg width="98" height="96" viewBox="0 0 98 96" fill="none" xmlns="http://www.w3.org/2000/svg">
<path d="M92.1211 8.7002H78.1986C77.2985 8.7002 76.5677 9.43121 76.5677 10.3321C76.5677 11.2333 77.2977 11.9633 78.1986 11.9633H92.1211C93.1408 11.9633 93.9698 12.7931 93.9698 13.8128V76.4587C93.9698 77.4784 93.1411 78.3084 92.1211 78.3084H5.1118C4.09187 78.3084 3.26311 77.4786 3.26311 76.4587V13.8118C3.26311 12.7931 4.09187 11.9633 5.1118 11.9633H19.0333C19.9335 11.9633 20.6642 11.2333 20.6642 10.3321C20.6642 9.43121 19.9345 8.7002 19.0333 8.7002H5.1118C2.29281 8.7002 0 10.9938 0 13.8118V76.4587C0 79.2777 2.29281 81.5705 5.1118 81.5705H38.0676L36.7352 92.2291H31.214C30.314 92.2291 29.583 92.9602 29.583 93.8611C29.583 94.762 30.313 95.492 31.214 95.492H66.0187C66.9189 95.492 67.6496 94.762 67.6496 93.8611C67.6496 92.9602 66.9196 92.2291 66.0187 92.2291H60.4975L59.1651 81.5705H92.1209C94.9399 81.5705 97.2327 79.2777 97.2327 76.4587V13.8118C97.2327 10.9938 94.9399 8.7002 92.1211 8.7002ZM40.0229 92.2299L41.3553 81.5713H55.8774L57.2098 92.2299H40.0229Z" fill="#FF5700"/>
<path d="M19.0333 15.6611H8.59242C7.69125 15.6611 6.96025 16.3911 6.96025 17.2921V71.238C6.96025 72.1391 7.69125 72.8699 8.59242 72.8699H17.2935C18.1944 72.8699 18.9254 72.1389 18.9254 71.238C18.9254 70.3378 18.1944 69.607 17.2935 69.607H10.2234V18.9243H19.0333C19.9345 18.9243 20.6642 18.1932 20.6642 17.2921C20.6642 16.3911 19.9345 15.6611 19.0333 15.6611Z" fill="#FF5700"/>
<path d="M88.6403 15.6611H78.1994C77.2982 15.6611 76.5685 16.3911 76.5685 17.2921C76.5685 18.1932 77.2985 18.9243 78.1994 18.9243H87.0093V69.607H24.2537C23.3528 69.607 22.6218 70.337 22.6218 71.238C22.6218 72.1389 23.3528 72.8699 24.2537 72.8699H88.6403C89.5414 72.8699 90.2722 72.1389 90.2722 71.238V17.2921C90.2724 16.3911 89.5414 15.6611 88.6403 15.6611Z" fill="#FF5700"/>
<path d="M74.7188 46.9841H72.8701V3.37174C72.8701 1.51217 71.3576 0 69.4983 0H27.7344C25.875 0 24.3626 1.51217 24.3626 3.37174V46.9841H22.5139C19.6949 46.9841 17.4024 49.278 17.4024 52.0959V59.0572C17.4024 61.8752 19.6949 64.169 22.5139 64.169H74.7188C77.5378 64.169 79.8306 61.8752 79.8306 59.0572V52.0959C79.8303 49.278 77.5378 46.9841 74.7188 46.9841ZM27.6257 48.6282C27.6257 48.6242 27.6257 48.6204 27.6257 48.6163C27.6257 48.6113 27.6257 48.6075 27.6257 48.6034V3.37174C27.6257 3.31148 27.6741 3.26184 27.7344 3.26184H69.4983C69.5586 3.26184 69.6072 3.31148 69.6072 3.37174V53.9457H64.1652C64.1652 53.9089 64.1693 53.8735 64.1693 53.8368C64.1693 51.7468 63.2286 49.8745 61.7478 48.6163C63.2276 47.3581 64.1693 45.4846 64.1693 43.3956C64.1693 39.6172 61.0961 36.5433 57.3177 36.5433C53.5393 36.5433 50.465 39.6172 50.465 43.3956C50.465 45.4846 51.4067 47.3581 52.8865 48.6163C51.4067 49.8745 50.465 51.7468 50.465 53.8368C50.465 53.8725 50.467 53.9089 50.4681 53.9457H36.3268V10.332C36.3268 9.43105 35.5958 8.70003 34.6949 8.70003C33.7937 8.70003 33.0637 9.43105 33.0637 10.332V53.9457H27.6257V48.6282ZM57.3174 46.9841C55.3383 46.9841 53.7279 45.374 53.7279 43.3956C53.7279 41.4166 55.3381 39.8064 57.3174 39.8064C59.2967 39.8064 60.9059 41.4166 60.9059 43.3956C60.9059 45.374 59.2967 46.9841 57.3174 46.9841ZM60.9059 53.8368C60.9059 53.8735 60.9029 53.9089 60.9018 53.9457H53.7327C53.7317 53.9089 53.7276 53.8735 53.7276 53.8368C53.7276 51.8577 55.3378 50.2473 57.3172 50.2473C59.2965 50.2473 60.9059 51.8577 60.9059 53.8368ZM76.5685 59.0572C76.5685 60.0769 75.7387 60.9059 74.7188 60.9059H22.5139C21.4942 60.9059 20.6642 60.0771 20.6642 59.0572V52.097C20.6642 51.0773 21.4942 50.2473 22.5139 50.2473H24.3626V55.5766C24.3626 56.4777 25.0926 57.2085 25.9935 57.2085H71.2391C72.1393 57.2085 72.8701 56.4775 72.8701 55.5766V50.2473H74.7188C75.7384 50.2473 76.5685 51.077 76.5685 52.097V59.0572Z" fill="#FF5700"/>
<path d="M41.6561 8.7002C40.7549 8.7002 40.0239 9.43121 40.0239 10.3321V19.0332C40.0239 19.9344 40.7549 20.6644 41.6561 20.6644C42.556 20.6644 43.287 19.9344 43.287 19.0332V10.3321C43.287 9.43121 42.556 8.7002 41.6561 8.7002Z" fill="#FF5700"/>
<path d="M41.6561 24.3623C40.7549 24.3623 40.0239 25.0923 40.0239 25.9935V34.6945C40.0239 35.5957 40.7549 36.3255 41.6561 36.3255C42.556 36.3255 43.287 35.5957 43.287 34.6945V25.9935C43.287 25.0923 42.556 24.3623 41.6561 24.3623Z" fill="#FF5700"/>
<path d="M41.6561 40.0239C40.7549 40.0239 40.0239 40.7539 40.0239 41.6548V48.6164C40.0239 49.5175 40.7549 50.2473 41.6561 50.2473C42.556 50.2473 43.287 49.5173 43.287 48.6164V41.6548C43.287 40.7539 42.556 40.0239 41.6561 40.0239Z" fill="#FF5700"/>
<path d="M60.797 8.7002H53.8368C51.9772 8.7002 50.465 10.2134 50.465 12.072V22.5131C50.465 24.3724 51.9774 25.8848 53.8368 25.8848H60.797C62.6566 25.8848 64.1688 24.3724 64.1688 22.5131V12.072C64.169 10.2134 62.6566 8.7002 60.797 8.7002ZM60.9059 22.5131C60.9059 22.5733 60.8575 22.6217 60.797 22.6217H53.8368C53.7765 22.6217 53.7279 22.5733 53.7279 22.5131V18.9246H60.9059V22.5131ZM60.9059 15.6614H53.7279V12.072C53.7279 12.0127 53.7762 11.9633 53.8368 11.9633H60.797C60.8573 11.9633 60.9059 12.0127 60.9059 12.072V15.6614Z" fill="#FF5700"/>
</svg>
