<svg width="94" height="93" viewBox="0 0 94 93" fill="none" xmlns="http://www.w3.org/2000/svg">
<path d="M64.9172 36.6865C66.6349 36.6865 68.0316 35.289 68.0316 33.5711V25.0177C68.0316 23.3008 66.6341 21.9031 64.9172 21.9031H27.5346C26.7818 21.9031 26.1701 22.514 26.1701 23.2676C26.1701 24.0215 26.7816 24.6321 27.5346 24.6321H64.9172C65.1293 24.6321 65.3026 24.8054 65.3026 25.0177V33.5711C65.3026 33.7832 65.1293 33.9567 64.9172 33.9567H13.4391C13.2268 33.9567 13.0547 33.7832 13.0547 33.5711V25.0177C13.0547 24.8056 13.2268 24.6321 13.4391 24.6321H21.1204C21.8751 24.6321 22.486 24.0215 22.486 23.2676C22.486 22.514 21.8751 21.9031 21.1204 21.9031H13.4391C11.722 21.9031 10.3245 23.3008 10.3245 25.0177V33.5711C10.3245 35.289 11.722 36.6865 13.4391 36.6865H64.9172Z" fill="#FF5700"/>
<path d="M49.1851 80.2987C48.3964 80.9161 47.58 81.5553 46.7201 81.8829C45.6172 82.3043 45.4068 82.1055 44.6276 81.3679C44.0821 80.8518 43.4042 80.2089 42.3397 79.8526C40.7639 79.3243 39.5036 80.167 38.5833 80.7816C37.5804 81.4521 37.5039 81.398 37.3533 81.2862C37.1119 81.11 36.807 80.5326 36.5617 80.0686C35.9188 78.849 34.5797 76.3141 31.6215 77.8018C29.334 78.9513 28.3246 81.4589 27.5138 83.4729C27.4181 83.7105 27.3246 83.9424 27.2326 84.165C26.9421 84.8598 27.2706 85.6591 27.9654 85.9498C28.1377 86.0218 28.3161 86.056 28.4909 86.056C29.0258 86.056 29.5327 85.7397 29.7512 85.2161C29.8479 84.9832 29.9463 84.7406 30.0456 84.4916C30.7191 82.8211 31.4802 80.9275 32.8476 80.2401C33.3722 79.9779 33.4149 79.955 34.1475 81.3424C34.5434 82.0933 34.9926 82.9437 35.7431 83.4908C37.5109 84.7835 39.1322 83.6992 40.0998 83.0514C40.7437 82.6206 41.186 82.345 41.4719 82.4397C41.9642 82.6055 42.3277 82.9501 42.75 83.3497C43.6402 84.1935 44.9859 85.467 47.6931 84.4338C48.9383 83.9585 49.9628 83.1556 50.8673 82.4481C51.461 81.9833 51.5642 81.1253 51.1002 80.5316C50.6358 79.938 49.7778 79.8347 49.1851 80.2987Z" fill="#FF5700"/>
<path d="M12.7343 43.3177C11.9807 43.3177 11.3698 43.9286 11.3698 44.6835C11.3698 45.4363 11.9807 46.048 12.7343 46.048H15.2826C16.0363 46.048 16.6471 45.4365 16.6471 44.6835C16.6471 43.9288 16.0363 43.3177 15.2826 43.3177H12.7343Z" fill="#FF5700"/>
<path d="M21.5605 43.3177C20.806 43.3177 20.1954 43.9286 20.1954 44.6835C20.1954 45.4363 20.806 46.048 21.5605 46.048H47.5035C48.2571 46.048 48.8678 45.4365 48.8678 44.6835C48.8678 43.9288 48.2571 43.3177 47.5035 43.3177H21.5605Z" fill="#FF5700"/>
<path d="M12.7343 51.6137H47.5035C48.2571 51.6137 48.8678 51.003 48.8678 50.2492C48.8678 49.4954 48.2571 48.8847 47.5035 48.8847H12.7343C11.9807 48.8847 11.3698 49.4954 11.3698 50.2492C11.3696 51.003 11.9817 51.6137 12.7343 51.6137Z" fill="#FF5700"/>
<path d="M12.8156 58.9846H15.3631C16.1167 58.9846 16.7276 58.3729 16.7276 57.6203C16.7276 56.8656 16.1167 56.2545 15.3631 56.2545H12.8156C12.0612 56.2545 11.4501 56.8656 11.4501 57.6203C11.4501 58.3729 12.0612 58.9846 12.8156 58.9846Z" fill="#FF5700"/>
<path d="M47.5035 58.9846C48.2571 58.9846 48.8678 58.3729 48.8678 57.6203C48.8678 56.8656 48.2571 56.2545 47.5035 56.2545H21.5605C20.806 56.2545 20.1954 56.8656 20.1954 57.6203C20.1954 58.3729 20.806 58.9846 21.5605 58.9846H47.5035Z" fill="#FF5700"/>
<path d="M47.5837 67.3875H36.198C35.4444 67.3875 34.8335 67.9982 34.8335 68.7528C34.8335 69.5067 35.4444 70.1163 36.198 70.1163H47.5837C48.3374 70.1163 48.9482 69.5067 48.9482 68.7528C48.9484 67.9982 48.3376 67.3875 47.5837 67.3875Z" fill="#FF5700"/>
<path d="M31.2846 68.753C31.2846 67.9984 30.6738 67.3877 29.9201 67.3877H12.8156C12.0612 67.3877 11.4501 67.9984 11.4501 68.753C11.4501 69.5069 12.061 70.1165 12.8156 70.1165H29.9201C30.6738 70.1165 31.2846 69.5069 31.2846 68.753Z" fill="#FF5700"/>
<path d="M47.5837 61.8217H12.8156C12.0612 61.8217 11.4501 62.4323 11.4501 63.1851C11.4501 63.9398 12.061 64.5504 12.8156 64.5504H47.5837C48.3373 64.5504 48.9482 63.9398 48.9482 63.1851C48.9484 62.4323 48.3375 61.8217 47.5837 61.8217Z" fill="#FF5700"/>
<path d="M93.0285 49.6129C92.9187 47.8886 91.8069 46.3661 90.1961 45.7313L78.4374 41.1058V5.88711C78.4374 2.64111 75.7963 0 72.5492 0H5.88711C2.64111 0 0 2.64111 0 5.88711V13.9066C0 14.0675 0.029492 14.222 0.0804492 14.365V87.1131C0.0804492 90.3599 2.72217 93 5.96838 93H72.549C75.7961 93 78.4372 90.3591 78.4372 87.1131V82.0603C80.9549 80.5689 83.183 78.6882 85.0882 76.4356C87.4849 73.6033 89.3853 70.1734 90.7385 66.2421C93.4279 58.423 93.1174 51.0183 93.0285 49.6129ZM72.469 2.729C74.2102 2.729 75.6271 4.14652 75.6271 5.88711V12.5408H2.8109V5.88711C2.8109 4.14652 4.22759 2.729 5.9688 2.729H72.469ZM75.7074 87.1129C75.7074 88.8541 74.2909 90.271 72.5492 90.271H5.9686C4.22739 90.271 2.8107 88.8543 2.8107 87.1129V15.2711H75.7072V40.0322L74.3408 39.4943C73.282 39.0786 72.1174 39.0786 71.0597 39.4943L55.2038 45.7315C53.593 46.3663 52.4814 47.8888 52.3723 49.6131C52.2823 51.0185 51.9718 58.4232 54.662 66.2421C56.0144 70.1736 57.9148 73.6035 60.3115 76.4356C63.2034 79.8549 66.8367 82.4228 71.1072 84.0658C71.6205 84.2636 72.1601 84.3622 72.7001 84.3622C73.24 84.3622 73.7794 84.2636 74.2927 84.0658C74.7738 83.8811 75.2444 83.6833 75.7074 83.4749V87.1129ZM88.1574 65.3546C85.4076 73.3474 80.4125 78.7865 73.3134 81.5185C72.9177 81.671 72.483 81.671 72.0873 81.5185C64.9863 78.7867 59.9923 73.3476 57.2425 65.3546C54.7227 58.0264 55.0134 51.1006 55.0959 49.7862C55.1394 49.1149 55.5739 48.5191 56.2027 48.2722L72.0597 42.0337C72.2662 41.9533 72.483 41.9126 72.7001 41.9126C72.9179 41.9126 73.1345 41.9533 73.3419 42.0347L89.1972 48.2722C89.827 48.5193 90.2615 49.1141 90.3042 49.7862C90.3874 51.1006 90.6781 58.0262 88.1574 65.3546Z" fill="#FF5700"/>
<path d="M84.6803 49.9595L73.9707 45.7468C73.1506 45.4247 72.249 45.4247 71.4292 45.7468L60.7205 49.9595C59.4734 50.4509 58.6138 51.63 58.5284 52.965C58.4658 53.9336 58.2519 59.0404 60.0967 64.4557C62.1554 70.4982 66.0867 74.7866 71.4653 76.8556C71.8641 77.0089 72.2814 77.0857 72.7 77.0857C73.1184 77.0857 73.5372 77.0089 73.9348 76.8556C77.4525 75.5023 80.3292 73.2412 82.4844 70.1344C82.9142 69.5151 82.7609 68.6647 82.1416 68.2348C81.5222 67.8051 80.672 67.9594 80.2421 68.5787C78.4041 71.2281 75.9516 73.1552 72.9546 74.3084C72.7908 74.3717 72.6088 74.3717 72.445 74.3084C67.7797 72.514 64.4949 68.9024 62.6796 63.575C61.0015 58.6482 61.1959 54.0179 61.2516 53.1391C61.2695 52.855 61.4533 52.6041 61.7195 52.5L72.4292 48.2862C72.6033 48.2179 72.7964 48.2179 72.9707 48.2862L83.6804 52.5C83.9455 52.6041 84.1301 52.855 84.1483 53.1391C84.2013 53.9829 84.3907 58.4343 82.83 63.2428C82.5971 63.9606 82.9899 64.7303 83.7068 64.9624C84.4237 65.1953 85.1934 64.8025 85.4265 64.0864C87.1395 58.8044 86.9311 53.8958 86.8715 52.965C86.7863 51.63 85.9264 50.4509 84.6803 49.9595Z" fill="#FF5700"/>
<path d="M81.189 55.9297C79.7224 54.6571 77.5197 54.7602 76.1769 56.1627L71.8107 60.7222L70.9755 59.9694C69.4879 58.6315 67.1849 58.7499 65.8423 60.2345C65.1757 60.9712 64.8442 61.9237 64.9104 62.9162C64.9756 63.9077 65.4295 64.8083 66.1887 65.4511L69.7577 68.4766C70.4441 69.0587 71.2794 69.3478 72.1116 69.3478C73.0367 69.3478 73.9581 68.9917 74.6703 68.2882L81.5798 61.4523C82.2975 60.7422 82.6905 59.7552 82.6575 58.746C82.6243 57.7366 82.1669 56.7774 81.4038 56.1154L81.189 55.9297ZM79.6607 59.5128L72.7512 66.3477C72.412 66.6819 71.8847 66.7019 71.5231 66.395L67.953 63.3687C67.7636 63.2078 67.6509 62.9833 67.6338 62.7351C67.6169 62.4871 67.7 62.2495 67.8669 62.0657C68.0468 61.8668 68.293 61.7665 68.542 61.7665C68.7588 61.7665 68.9765 61.8433 69.1497 61.9986L70.4462 63.1661C71.2908 63.9265 72.5672 63.878 73.3532 63.0582L78.1483 58.0499C78.4844 57.7007 79.0346 57.6743 79.401 57.9924L79.616 58.1778C79.8774 58.4052 79.9246 58.6874 79.9296 58.8357C79.9343 58.9845 79.9058 59.2696 79.6607 59.5128Z" fill="#FF5700"/>
</svg>
