<?xml version="1.0" encoding="utf-8"?>
<!-- Generator: Adobe Illustrator 23.0.0, SVG Export Plug-In . SVG Version: 6.00 Build 0)  -->
<svg version="1.1" id="Capa_1" xmlns="http://www.w3.org/2000/svg" xmlns:xlink="http://www.w3.org/1999/xlink" x="0px" y="0px"
	 viewBox="0 0 100 55" style="enable-background:new 0 0 100 55;" xml:space="preserve">
<style type="text/css">
	.st0{fill-rule:evenodd;clip-rule:evenodd;fill:#626362;}
	.st1{fill-rule:evenodd;clip-rule:evenodd;fill:#D58532;}
	.st2{fill:#626362;}
	.st3{fill:#BF0019;}
	.st4{fill-rule:evenodd;clip-rule:evenodd;fill:#E1251B;}
	.st5{fill-rule:evenodd;clip-rule:evenodd;fill:#0075C9;}
	.st6{fill-rule:evenodd;clip-rule:evenodd;fill:#FFD100;}
	.st7{fill-rule:evenodd;clip-rule:evenodd;fill:#F18A00;}
	.st8{fill:#2D2A26;}
	.st9{fill:#231F20;}
	.st10{fill-rule:evenodd;clip-rule:evenodd;fill:#2D2A26;}
</style>
<g>
	<g>
		<path class="st0" d="M15,20.3c-1.4,0.7-3.4,1.3-5.3,1.3c-1.5,0-2.7-0.5-3.3-1.3c-0.4-0.5-0.5-1.3-0.5-1.8c7,0.2,11.3-1.4,11.3-5.9
			c0-3.2-2.6-5.2-6.1-5.2C4.9,7.4,1,12.9,1,18.2c0,4.5,2.6,7.4,7.6,7.4c1.6,0,3.9-0.3,5.7-1L15,20.3L15,20.3z M12.4,12.6
			c0,1.6-2,2.1-6,2.1c0.4-1.6,1.7-3.6,4.1-3.6C11.7,11.1,12.4,11.7,12.4,12.6z"/>
	</g>
	<g>
		<path class="st1" d="M90.9,11.2c2.1,0,2.7,1.7,2.7,3.3c0,3-1.6,7.1-4.4,7.1c-1.8,0-2.8-1.3-2.8-3.4C86.4,15.6,87.9,11.2,90.9,11.2
			L90.9,11.2z M91.5,7.4c-6.2,0-10.4,5-10.4,11c0,4.3,3,7.2,7.4,7.2c6.1,0,10.4-4.7,10.4-11.1C98.9,10.6,96.2,7.4,91.5,7.4z"/>
	</g>
	<g>
		<path class="st1" d="M79.3,20.7c-0.9,0.4-2,0.7-3.5,0.7c-1.9,0-3.4-1.2-3.4-3.6c0-3.3,2.3-6.4,5.9-6.4c1,0,1.6,0.1,2.2,0.4
			l0.8-4.1c-0.8-0.3-1.4-0.4-2.9-0.4C71.7,7.4,67,12.2,67,18.4c0,4.5,3,7.1,7.4,7.1c1.7,0,3-0.2,4.1-0.6L79.3,20.7z"/>
	</g>
	<g>
		<path class="st0" d="M51.9,7.7l3.5,15.8c0.1,0.4,0.1,0.6-0.1,0.9c-0.7,1.2-1.6,2.2-2.8,3c-1,0.7-2.2,1.1-3,1.4l1.1,4.4
			c1.1-0.2,3.6-1,5.6-3c2.3-2.2,4.4-5.4,6.7-10l6.2-12.5h-5.4l-3.2,7.7c-0.8,1.9-1.1,3-1.5,4.1H59c-0.1-1.1-0.3-2.4-0.6-4.2
			l-1.1-7.6C57.4,7.7,51.9,7.7,51.9,7.7z"/>
	</g>
	<g>
		<path class="st0" d="M25.7,5.3c0.4-0.1,1.1-0.2,2.1-0.2c2,0,3.7,0.8,3.7,3.1c0,2.4-2,4.4-5.1,4.4c-0.9,0-1.4-0.1-2-0.2L25.7,5.3
			L25.7,5.3z M16.8,25.2h5l1.6-8.7c0.5,0.1,1.2,0.1,2.1,0.1c2.9,0,5.7-0.7,7.7-2.2c1.9-1.5,3.3-3.8,3.3-6.8c0-2.3-1-4-2.6-5.1
			C32.2,1.3,29.7,1,27.6,1c-3.3,0-4.8,0.2-7.9,1.1l-0.7,3.4l1.5-0.2L16.8,25.2z"/>
	</g>
	<g>
		<path class="st0" d="M44.7,18.5c-0.1,0.3-0.2,0.7-0.3,0.9c-0.6,1.1-1.9,2-3.2,2c-1.2,0-2-0.7-1.7-2.1c0.4-2.1,2.7-2.8,5.6-2.7
			L44.7,18.5L44.7,18.5z M49,24.9c0-0.9,0.3-2.6,0.6-4.3l1.2-6.1c0.8-4.1-0.4-7.5-6.2-7.5c-2.4,0-4.5,0.5-5.9,1l-0.9,4
			c1.3-0.7,3.3-1.3,5.1-1.3c2.7,0,2.9,1.3,2.7,2.3l0,0.3C39.5,13.3,35,15.4,34,20c-0.6,2.8,1,5.4,4.6,5.4c2.1,0,4-0.8,5.4-2.2h0.1
			l0,1.7L49,24.9L49,24.9z"/>
	</g>
	<g>
		<path class="st2" d="M2.4,36.5L2.2,38h1.6l-0.1,0.5H2.2L2,40h1.9l-0.1,0.5H1.4L1.9,36h2.5l-0.1,0.5H2.4z"/>
		<path class="st2" d="M5.3,38.1c0.2-0.3,0.4-0.5,0.6-0.6s0.4-0.2,0.7-0.2c0.1,0,0.3,0,0.4,0.1c0.1,0.1,0.2,0.1,0.3,0.2
			c0.1,0.1,0.1,0.2,0.1,0.4s0,0.3,0,0.5l-0.2,2H6.4l0.2-2c0-0.3,0-0.4,0-0.6c0-0.1-0.2-0.2-0.3-0.2c-0.1,0-0.2,0-0.3,0.1
			c-0.1,0.1-0.2,0.1-0.3,0.2c-0.1,0.1-0.2,0.2-0.3,0.4c-0.1,0.1-0.2,0.3-0.2,0.5l-0.2,1.6H4.5l0.4-3.1h0.3c0.1,0,0.2,0.1,0.2,0.2
			L5.3,38.1z"/>
		<path class="st2" d="M11.1,39.6c-0.1,0.1-0.2,0.3-0.2,0.4c-0.1,0.1-0.2,0.2-0.3,0.3c-0.1,0.1-0.2,0.1-0.3,0.2
			c-0.1,0-0.2,0.1-0.3,0.1c-0.1,0-0.2,0-0.3-0.1c-0.1-0.1-0.2-0.1-0.3-0.2c-0.1-0.1-0.1-0.2-0.2-0.4c0-0.1-0.1-0.3-0.1-0.5
			c0-0.2,0-0.4,0.1-0.6c0-0.2,0.1-0.3,0.2-0.5c0.1-0.2,0.2-0.3,0.3-0.4c0.1-0.1,0.3-0.3,0.4-0.3c0.2-0.1,0.3-0.2,0.5-0.2
			c0.2-0.1,0.4-0.1,0.5-0.1c0.1,0,0.3,0,0.4,0c0.1,0,0.3,0.1,0.4,0.1l-0.4,3h-0.3c-0.1,0-0.1,0-0.2-0.1c0,0,0-0.1,0-0.1L11.1,39.6z
			 M11.3,37.7c0,0-0.1,0-0.1,0s-0.1,0-0.1,0c-0.1,0-0.2,0-0.4,0.1c-0.1,0-0.2,0.1-0.3,0.2c-0.1,0.1-0.2,0.2-0.3,0.3
			c-0.1,0.1-0.2,0.2-0.2,0.3c0,0.1-0.1,0.3-0.1,0.4c0,0.1,0,0.3,0,0.4c0,0.5,0.2,0.8,0.5,0.8c0.1,0,0.2,0,0.3-0.1
			c0.1-0.1,0.2-0.2,0.3-0.3c0.1-0.1,0.2-0.3,0.2-0.4c0.1-0.1,0.1-0.3,0.2-0.5L11.3,37.7z"/>
		<path class="st2" d="M12.4,40.5l0.6-4.5h0.6l-0.6,4.5H12.4z"/>
		<path class="st2" d="M14.6,37.3l-0.4,3.1h-0.6l0.4-3.1H14.6z M14.9,36.4c0,0.1,0,0.1,0,0.2c0,0.1-0.1,0.1-0.1,0.1
			c0,0-0.1,0.1-0.1,0.1c0,0-0.1,0-0.1,0c-0.1,0-0.1,0-0.1,0c0,0-0.1-0.1-0.1-0.1c0,0-0.1-0.1-0.1-0.1s0-0.1,0-0.2c0-0.1,0-0.1,0-0.2
			c0-0.1,0.1-0.1,0.1-0.1c0,0,0.1-0.1,0.1-0.1c0,0,0.1,0,0.1,0c0.1,0,0.1,0,0.1,0c0,0,0.1,0.1,0.1,0.1c0,0,0.1,0.1,0.1,0.1
			C14.9,36.2,14.9,36.3,14.9,36.4z"/>
		<path class="st2" d="M17.1,39.6c-0.1,0.1-0.2,0.3-0.2,0.4c-0.1,0.1-0.2,0.2-0.3,0.3s-0.2,0.1-0.3,0.2c-0.1,0-0.2,0.1-0.3,0.1
			c-0.1,0-0.2,0-0.3-0.1c-0.1-0.1-0.2-0.1-0.3-0.2s-0.1-0.2-0.2-0.4c0-0.1-0.1-0.3-0.1-0.5c0-0.2,0-0.4,0.1-0.6
			c0-0.2,0.1-0.3,0.2-0.5c0.1-0.2,0.2-0.3,0.3-0.4c0.1-0.1,0.3-0.3,0.4-0.3c0.1-0.1,0.3-0.2,0.5-0.2c0.2-0.1,0.4-0.1,0.5-0.1
			c0.1,0,0.3,0,0.4,0c0.1,0,0.3,0.1,0.4,0.1l-0.4,3h-0.3c-0.1,0-0.1,0-0.2-0.1c0,0,0-0.1,0-0.1L17.1,39.6z M17.3,37.7
			c0,0-0.1,0-0.1,0s-0.1,0-0.1,0c-0.1,0-0.2,0-0.4,0.1c-0.1,0-0.2,0.1-0.3,0.2c-0.1,0.1-0.2,0.2-0.3,0.3c-0.1,0.1-0.2,0.2-0.2,0.3
			c-0.1,0.1-0.1,0.3-0.1,0.4c0,0.1-0.1,0.3-0.1,0.4c0,0.5,0.2,0.8,0.5,0.8c0.1,0,0.2,0,0.3-0.1c0.1-0.1,0.2-0.2,0.3-0.3
			c0.1-0.1,0.2-0.3,0.2-0.4c0.1-0.2,0.1-0.3,0.2-0.5L17.3,37.7z"/>
		<path class="st2" d="M19.1,38.1c0.2-0.3,0.4-0.5,0.6-0.6c0.2-0.1,0.4-0.2,0.7-0.2c0.1,0,0.3,0,0.4,0.1c0.1,0.1,0.2,0.1,0.3,0.2
			c0.1,0.1,0.1,0.2,0.1,0.4c0,0.1,0,0.3,0,0.5l-0.2,2h-0.6l0.2-2c0-0.3,0-0.4,0-0.6c0-0.1-0.2-0.2-0.3-0.2c-0.1,0-0.2,0-0.3,0.1
			c-0.1,0.1-0.2,0.1-0.3,0.2c-0.1,0.1-0.2,0.2-0.3,0.4s-0.2,0.3-0.2,0.5l-0.2,1.6h-0.6l0.4-3.1H19c0.1,0,0.2,0.1,0.2,0.2L19.1,38.1z
			"/>
		<path class="st2" d="M24,37.3l0,0.2c0,0,0,0.1,0,0.1c0,0,0,0.1-0.1,0.1L22,40h1.5l-0.1,0.4h-2.2l0-0.2c0,0,0-0.1,0-0.1
			c0,0,0-0.1,0.1-0.1l1.8-2.3h-1.5l0.1-0.4H24L24,37.3z"/>
		<path class="st2" d="M26,39.6c-0.1,0.1-0.2,0.3-0.2,0.4c-0.1,0.1-0.2,0.2-0.3,0.3c-0.1,0.1-0.2,0.1-0.3,0.2
			c-0.1,0-0.2,0.1-0.3,0.1c-0.1,0-0.2,0-0.3-0.1c-0.1,0-0.2-0.1-0.3-0.2c-0.1-0.1-0.1-0.2-0.2-0.4c0-0.1-0.1-0.3-0.1-0.5
			c0-0.2,0-0.4,0.1-0.6c0-0.2,0.1-0.3,0.2-0.5s0.2-0.3,0.3-0.4c0.1-0.1,0.3-0.3,0.4-0.3c0.1-0.1,0.3-0.2,0.5-0.2
			c0.2-0.1,0.4-0.1,0.5-0.1c0.1,0,0.3,0,0.4,0c0.1,0,0.3,0.1,0.4,0.1l-0.4,3h-0.3c-0.1,0-0.1,0-0.1-0.1c0,0,0-0.1,0-0.1L26,39.6z
			 M26.3,37.7c0,0-0.1,0-0.1,0s-0.1,0-0.1,0c-0.1,0-0.2,0-0.4,0.1c-0.1,0-0.2,0.1-0.3,0.2c-0.1,0.1-0.2,0.2-0.3,0.3
			c-0.1,0.1-0.2,0.2-0.2,0.3c-0.1,0.1-0.1,0.3-0.1,0.4c0,0.1-0.1,0.3-0.1,0.4c0,0.5,0.2,0.8,0.5,0.8c0.1,0,0.2,0,0.3-0.1
			c0.1-0.1,0.2-0.2,0.3-0.3c0.1-0.1,0.2-0.3,0.2-0.4c0.1-0.2,0.1-0.3,0.2-0.5L26.3,37.7z"/>
		<path class="st2" d="M30.7,40.2c-0.1,0.1-0.2,0.1-0.3,0.2c-0.1,0.1-0.2,0.1-0.3,0.1c-0.1,0-0.2,0-0.3,0c-0.2,0-0.3,0-0.5-0.1
			c-0.1-0.1-0.3-0.1-0.4-0.3s-0.2-0.3-0.2-0.4c-0.1-0.2-0.1-0.3-0.1-0.5c0-0.3,0-0.5,0.1-0.7c0.1-0.2,0.2-0.4,0.3-0.6
			c0.1-0.2,0.3-0.3,0.5-0.4c0.2-0.1,0.4-0.2,0.7-0.2c0.2,0,0.4,0,0.5,0.1s0.3,0.2,0.4,0.3L31,37.9c0,0,0,0-0.1,0s0,0-0.1,0
			c0,0-0.1,0-0.1,0c0,0-0.1-0.1-0.1-0.1c0,0-0.1-0.1-0.2-0.1s-0.2,0-0.3,0c-0.1,0-0.3,0-0.4,0.1c-0.1,0.1-0.2,0.2-0.3,0.3
			s-0.2,0.3-0.2,0.5c-0.1,0.2-0.1,0.4-0.1,0.6c0,0.1,0,0.2,0,0.4s0.1,0.2,0.1,0.3c0.1,0.1,0.1,0.1,0.2,0.2c0.1,0,0.2,0.1,0.3,0.1
			c0.1,0,0.3,0,0.4-0.1c0.1,0,0.2-0.1,0.2-0.1c0.1,0,0.1-0.1,0.2-0.1c0,0,0.1-0.1,0.1-0.1s0.1,0,0.1,0.1l0.1,0.2
			C30.9,40,30.8,40.1,30.7,40.2z"/>
		<path class="st2" d="M32.6,40.5c-0.2,0-0.3,0-0.5-0.1s-0.3-0.1-0.4-0.3c-0.1-0.1-0.2-0.3-0.2-0.4c-0.1-0.2-0.1-0.4-0.1-0.6
			c0-0.3,0-0.5,0.1-0.8c0.1-0.2,0.2-0.4,0.3-0.6c0.1-0.2,0.3-0.3,0.5-0.4c0.2-0.1,0.4-0.2,0.6-0.2c0.2,0,0.3,0,0.5,0.1
			c0.1,0.1,0.3,0.1,0.4,0.3c0.1,0.1,0.2,0.3,0.2,0.4c0.1,0.2,0.1,0.4,0.1,0.6c0,0.3,0,0.5-0.1,0.8c-0.1,0.2-0.2,0.4-0.3,0.6
			c-0.1,0.2-0.3,0.3-0.5,0.4C33.1,40.5,32.8,40.5,32.6,40.5z M32.7,40.1c0.2,0,0.3,0,0.4-0.1s0.2-0.2,0.3-0.3
			c0.1-0.1,0.2-0.3,0.2-0.5c0-0.2,0.1-0.4,0.1-0.6c0-0.3-0.1-0.5-0.2-0.7c-0.1-0.1-0.3-0.2-0.5-0.2c-0.2,0-0.3,0-0.4,0.1
			s-0.2,0.2-0.3,0.3s-0.2,0.3-0.2,0.5c0,0.2-0.1,0.4-0.1,0.6c0,0.3,0.1,0.5,0.2,0.7C32.3,40,32.4,40.1,32.7,40.1z"/>
		<path class="st2" d="M35.4,38.1c0.2-0.3,0.4-0.5,0.6-0.6s0.4-0.2,0.7-0.2c0.1,0,0.3,0,0.4,0.1c0.1,0.1,0.2,0.1,0.3,0.2
			c0.1,0.1,0.1,0.2,0.1,0.4c0,0.1,0,0.3,0,0.5l-0.2,2h-0.6l0.2-2c0-0.3,0-0.4,0-0.6c0-0.1-0.2-0.2-0.3-0.2c-0.1,0-0.2,0-0.3,0.1
			c-0.1,0.1-0.2,0.1-0.3,0.2c-0.1,0.1-0.2,0.2-0.3,0.4s-0.2,0.3-0.2,0.5l-0.2,1.6h-0.6l0.4-3.1h0.3c0.1,0,0.2,0.1,0.2,0.2L35.4,38.1
			z"/>
	</g>
	<g>
		<path class="st3" d="M19.9,52.7c1.5,0.3,5.3,0.2,5.4-2.3c0-1-1.3-1.9-2.5-2.2c-1.5-0.3-2.5-0.3-4,0c-0.9,0.4-1.2-0.6-0.4-0.9
			c1.6-0.6,7.9-0.7,8.2,3c-0.3,3.7-5.7,3.4-7,3.2c-0.5-0.1-0.9-0.3-0.9-0.9v-3.1c0-0.7,1.1-0.7,1.1,0L19.9,52.7z"/>
	</g>
	<g>
		<path class="st3" d="M31.7,48.3c-1.2,0-3.3,3.7-3.9,5.1c-0.4,0.8-1.5,0.2-1.1-0.6c0.7-1.4,3.1-5.8,5-5.7c1.9,0,4.4,4.3,5,5.7
			c0.4,0.8-0.8,1.4-1.1,0.6C35,52,33,48.3,31.7,48.3"/>
	</g>
	<g>
		<path class="st3" d="M40.3,52.5c1.2,0,3.3-3.7,3.9-5.1c0.4-0.8,1.5-0.2,1.1,0.6c-0.7,1.4-3.1,5.8-5,5.7c-1.9,0-4.4-4.3-5-5.7
			c-0.4-0.8,0.8-1.4,1.1-0.6C37,48.8,39,52.5,40.3,52.5"/>
	</g>
	<g>
		<path class="st3" d="M47.3,47.7v5.4c0,0.8-1.2,0.8-1.2,0v-5.4C46.1,46.8,47.3,46.8,47.3,47.7"/>
	</g>
	<g>
		<path class="st3" d="M53.2,52.5c1.2,0,3.3-3.7,3.9-5.1c0.4-0.8,1.5-0.2,1.1,0.6c-0.7,1.4-3.1,5.8-5,5.7c-1.9,0-4.4-4.3-5-5.7
			c-0.4-0.8,0.8-1.4,1.1-0.6C50,48.8,52,52.5,53.2,52.5"/>
	</g>
	<g>
		<path class="st3" d="M62.7,51c0.4,0.8,1.4,1.4,2.4,1.6c1.5,0.3,2.5,0.3,4,0c0.9-0.3,1.2,0.6,0.4,0.9c-1.7,0.6-7.9,0.8-8.2-3
			c0.2-3.6,5.1-3.5,7-3.3c0.9,0.1,0.7,1.1-0.2,0.9c-1.3-0.2-4.7-0.4-5.3,1.9h3.5c0.6,0,0.6,1,0,1H62.7z"/>
	</g>
	<g>
		<path class="st3" d="M82.2,52.7c1.5,0.3,5.3,0.2,5.4-2.3c0-1-1.3-1.9-2.5-2.2c-1.5-0.3-2.5-0.3-4,0c-0.9,0.4-1.2-0.6-0.4-0.9
			c1.6-0.6,7.9-0.7,8.2,3c-0.3,3.7-5.8,3.4-7,3.2c-0.5-0.1-0.9-0.3-0.9-0.9v-3.1c0-0.7,1.1-0.7,1.1,0L82.2,52.7L82.2,52.7z"/>
	</g>
	<g>
		<path class="st3" d="M94,48.3c-1.2,0-3.3,3.7-3.9,5.1c-0.4,0.8-1.5,0.2-1.1-0.6c0.7-1.4,3.1-5.8,5-5.7c1.9,0,4.4,4.3,5,5.7
			c0.4,0.8-0.8,1.4-1.1,0.6C97.2,52,95.2,48.3,94,48.3"/>
	</g>
	<g>
		<path class="st3" d="M60.3,47.7v5.4c0,0.8-1.2,0.8-1.2,0v-5.4C59.1,46.8,60.3,46.8,60.3,47.7"/>
	</g>
	<g>
		<path class="st3" d="M75.1,51.5c-0.8-1.4-1.6-3.2-2.2-3.3c-1.4,0-0.8,2.8-0.8,5c0,0.8-1.2,0.8-1.2-0.1c0-2.8-0.6-6.1,2.1-6.1
			c0.8,0,1.5,1.1,2.2,2.3c0.8,1.4,1.7,3.2,2.2,3.3c1.4,0,0.8-2.7,0.8-4.9c0-0.8,1.2-0.8,1.2,0.1c0,2.8,0.6,6-2,6
			C76.5,53.8,75.7,52.6,75.1,51.5"/>
	</g>
	<g>
		<g>
			<path class="st4" d="M3.2,48.7c0,0.2,0,1-0.8,2.2c-0.8,1.3,0.5,3.4,3,2.9C6,53.9,6.6,54,7,54s1,0,1.6-0.2c2.6,0.6,3.9-1.6,3-2.9
				c-0.8-1.1-0.8-2-0.8-2.2H3.2z"/>
		</g>
		<g>
			<path class="st5" d="M7,54c-2.5-0.1-3-1.2-2.3-1.5c0.4-0.1,0.9-0.4,0.9-0.4c-0.3-1.3,0.2-3,1.3-3s1.6,1.7,1.3,3
				c0,0,0.5,0.2,0.9,0.4C9.9,52.8,9.5,53.9,7,54"/>
		</g>
		<g>
			<path class="st6" d="M6,53C5.4,51.2,6,49.4,7,49.4c1,0,1.6,1.7,0.9,3.6c0,0-0.3-0.1-1-0.1C6.5,53,6,53,6,53"/>
		</g>
		<g>
			<path class="st7" d="M7,54c1,0,1.8-0.2,1.8-0.5c0-0.3-0.8-0.5-1.8-0.5c-1,0-1.8,0.2-1.8,0.5C5.2,53.8,6,54,7,54"/>
		</g>
		<g>
			<path class="st5" d="M3.6,49.6h1.2c0.2,0,0.4,0.2,0.4,0.4v0.8c0,0.2-0.2,0.4-0.4,0.4H3.6c-0.2,0-0.4-0.2-0.4-0.4v-0.8
				C3.3,49.7,3.5,49.6,3.6,49.6"/>
		</g>
		<g>
			<path class="st8" d="M3.8,49.8h0.9C4.9,49.8,5,49.9,5,50v0.6c0,0.1-0.1,0.3-0.3,0.3H3.8c-0.1,0-0.3-0.1-0.3-0.3V50
				C3.5,49.9,3.6,49.8,3.8,49.8"/>
		</g>
		<g>
			<path class="st6" d="M5,50.5c-0.4,0-0.6-0.6-0.6-0.7h0.4C4.9,49.8,5,49.9,5,50V50.5z"/>
		</g>
		<g>
			<path class="st6" d="M4.1,49.8c0,0.1-0.2,0.7-0.6,0.7V50c0-0.1,0.1-0.3,0.3-0.3H4.1z"/>
		</g>
		<g>
			<path class="st5" d="M9.1,49.6h1.2c0.2,0,0.4,0.2,0.4,0.4v0.8c0,0.2-0.2,0.4-0.4,0.4H9.1c-0.2,0-0.4-0.2-0.4-0.4v-0.8
				C8.8,49.7,8.9,49.6,9.1,49.6"/>
		</g>
		<g>
			<path class="st8" d="M9.3,49.8h1c0.1,0,0.3,0.1,0.3,0.3v0.6c0,0.1-0.1,0.3-0.3,0.3h-1c-0.1,0-0.3-0.1-0.3-0.3V50
				C9,49.9,9.1,49.8,9.3,49.8"/>
		</g>
		<g>
			<path class="st6" d="M10.5,50.5c-0.4,0-0.6-0.6-0.6-0.7h0.4c0.1,0,0.3,0.1,0.3,0.3V50.5z"/>
		</g>
		<g>
			<path class="st6" d="M9.6,49.8c0,0.1-0.2,0.7-0.6,0.7V50c0-0.1,0.1-0.3,0.3-0.3H9.6z"/>
		</g>
		<g>
			<path class="st4" d="M9.5,45.5c-0.1-0.4-0.2-0.7,0.3-0.7h0.9c0.5,0,0.3,0.4,0.3,0.8c-0.1,0.6-0.1,0.7-0.1,0.7S9.5,45.5,9.5,45.5"
				/>
		</g>
		<g>
			<path class="st7" d="M7,48.6c-1.3,0-3.1,0.1-4.3,0.2c-0.9,0.1-1.6-0.6-1-1.2C3,46.2,6.1,44.5,7,44.5c1,0,4,1.7,5.3,3.1
				c0.6,0.7,0,1.2-0.9,1.2C10.4,48.8,8.3,48.6,7,48.6"/>
		</g>
		<g>
			<path class="st9" d="M7.7,51.7c0-0.1,0.1-0.2,0.2-0.2S8,51.6,8,51.7c0,0.1-0.1,0.2-0.2,0.2S7.7,51.8,7.7,51.7"/>
		</g>
		<g>
			<path class="st10" d="M7,52.9C6.5,52.9,6,53,6,53C5.4,51.1,6,49.4,7,49.4s1.6,1.7,0.9,3.5C7.9,53,7.5,52.9,7,52.9 M7.9,53
				c0.5,0.1,0.9,0.2,0.9,0.4c0,0.3-0.8,0.5-1.8,0.5s-1.8-0.2-1.8-0.5c0-0.2,0.3-0.3,0.9-0.4C6.1,53,6.6,53,7,53
				C7.3,53,7.9,53,7.9,53 M8,53c0.7-1.9,0-3.6-1-3.6c-1,0-1.7,1.7-1,3.6c-0.5,0.1-0.9,0.3-0.9,0.5c0,0.1,0,0.1,0.1,0.2
				c-0.9-0.4-0.9-1-0.5-1.1c0.4-0.1,0.9-0.3,0.9-0.3c-0.3-1.3,0.1-3,1.3-3s1.6,1.7,1.3,3c0,0,0.5,0.2,0.9,0.3
				c0.5,0.2,0.4,0.8-0.5,1.1c0.1-0.1,0.1-0.1,0.1-0.2C8.9,53.3,8.5,53.1,8,53 M9.6,45.5c-0.1-0.4-0.1-0.6,0.2-0.6h0.8
				c0.5,0,0.3,0.4,0.3,0.8c0,0.2,0,0.4-0.1,0.6C10.4,45.9,10,45.7,9.6,45.5 M8.7,53.7c2.4,0.4,3.6-1.6,2.8-2.8
				c-0.6-0.9-0.8-1.6-0.8-2c-1.6-0.1-2.7-0.2-3.8-0.2s-2.2,0.1-3.8,0.2c0,0.4-0.2,1.1-0.8,2c-0.8,1.2,0.4,3.3,2.8,2.8
				c-1-0.4-1.1-1-0.6-1.3c0.4-0.2,0.9-0.4,0.9-0.4c-0.3-1.3,0.2-3,1.4-3c1.2,0,1.6,1.7,1.4,3c0,0,0.6,0.2,0.9,0.4
				C9.9,52.7,9.7,53.3,8.7,53.7 M7,48.5c-1.4,0-2.6,0.1-4.2,0.2c-0.9,0.1-1.5-0.6-0.9-1.2c0.9-0.9,3.9-2.9,5.1-2.9s4.2,2,5.1,2.9
				c0.6,0.7,0.1,1.3-0.9,1.2C9.6,48.7,8.4,48.6,7,48.5 M9.4,45.4c0,0,0-0.1,0-0.1c-0.1-0.2,0-0.5,0.4-0.5h0.9c0.5,0,0.5,0.4,0.4,0.7
				c-0.1,0.3-0.1,0.6-0.1,0.9c0,0,0.7,0.5,1.1,0.9c1.3,1.1,0.5,1.8-0.8,1.7c-0.1,0-0.2,0-0.4,0c0,0.4,0.1,1,0.7,1.8
				c1.4,1.7-0.5,3.8-3.1,3.2C8,54,7.3,54,7,54S5.9,54,5.4,53.8c-2.6,0.6-4.5-1.5-3.1-3.2C2.9,49.9,3,49.3,3,48.9l-0.4,0
				c-1.2,0.1-2-0.6-0.8-1.7c1.9-1.6,4.2-2.7,5-2.7C7.5,44.4,8.4,44.8,9.4,45.4"/>
		</g>
		<g>
			<path class="st8" d="M4.9,51.1H3.6c-0.2,0-0.4-0.2-0.4-0.4V50c0-0.2,0.2-0.4,0.4-0.4h1.2c0.2,0,0.4,0.2,0.4,0.4v0.8
				C5.2,51,5.1,51.1,4.9,51.1z M3.6,49.6c-0.2,0-0.3,0.1-0.3,0.3v0.8c0,0.2,0.2,0.3,0.3,0.3h1.2c0.2,0,0.3-0.2,0.3-0.3v-0.8
				c0-0.2-0.2-0.3-0.3-0.3H3.6z"/>
		</g>
		<g>
			<path class="st8" d="M10.4,51.1H9.1c-0.2,0-0.4-0.2-0.4-0.4V50c0-0.2,0.2-0.4,0.4-0.4h1.2c0.2,0,0.4,0.2,0.4,0.4v0.8
				C10.7,51,10.6,51.1,10.4,51.1z M9.1,49.6c-0.2,0-0.3,0.1-0.3,0.3v0.8c0,0.2,0.1,0.3,0.3,0.3h1.2c0.2,0,0.3-0.2,0.3-0.3v-0.8
				c0-0.2-0.2-0.3-0.3-0.3H9.1z"/>
		</g>
	</g>
</g>
</svg>
