<?xml version="1.0" encoding="utf-8"?>
<!-- Generator: Adobe Illustrator 23.0.0, SVG Export Plug-In . SVG Version: 6.00 Build 0)  -->
<svg version="1.1" id="Capa_1" xmlns="http://www.w3.org/2000/svg" xmlns:xlink="http://www.w3.org/1999/xlink" x="0px" y="0px"
	 viewBox="0 0 1080 114" style="enable-background:new 0 0 1080 114;" xml:space="preserve">
<style type="text/css">
	.st0{fill:#FFFFFF;}
</style>
<path class="st0" d="M1080,41.7l-42.38,47.94c0,0-3.15-0.05-2.91-2.57c2.91-30.46-47.08-97.98-116.35-39.23
	c-77.7,65.89-221.41,61.38-221.41,61.38s-2.53-3.54-7.65-8.64c0,0,0,0,0,0c-14.15-20.56-37.85-34.04-64.69-34.04
	c-6.49,0-12.79,0.79-18.82,2.27c-0.01,0-0.01,0-0.01,0c-4.34,0.95-8.18,2.3-11.49,3.8c0,0-0.01,0-0.01,0.01
	c-4.85,2.03-9.45,4.54-13.75,7.47c-13.57-23.44-38.93-39.2-67.96-39.2c-29.89,0-55.87,16.71-69.12,41.29
	c-39.8-37.84-141.52,70.01-216.05,5.12c-3.85-3.35-9.93,1.07-14.76,0.64c-14.4-16.96-35.87-27.72-59.86-27.72
	c-15.13,0-29.27,4.28-41.25,11.71C107.31-6.58,0.29,13.64,0.29,13.64v99.4h75.65h153.85h211.76h0h104.92h37.49h118.89h334.1H1080
	V41.7z"/>
</svg>
