<?xml version="1.0" encoding="utf-8"?>
<!-- Generator: Adobe Illustrator 23.0.0, SVG Export Plug-In . SVG Version: 6.00 Build 0)  -->
<svg version="1.1" id="Capa_1" xmlns="http://www.w3.org/2000/svg" xmlns:xlink="http://www.w3.org/1999/xlink" x="0px" y="0px"
	 viewBox="0 0 1080 114" style="enable-background:new 0 0 1080 114;" xml:space="preserve">
<style type="text/css">
	.st0{fill:#FFFFFF;}
</style>
<path class="st0" d="M948.62,0.22H770.74H630.05H387.96H247.28H0.29v47.42c0,0,15.44-18.41,35.62-23.9
	c36.28-9.86,62.01,6.57,77.27,16.14c14.98,9.4,79.32,58.5,167.51,5.6c10.81,6.43,23.44,10.12,36.93,10.12
	c28.18,0,52.6-16.12,64.54-39.64c1.68-3.3,3.1-6.75,4.26-10.31l0,0c20.94-4.89,147.44-5.44,197.86,24.16
	c34.73,20.39,48.82-4.47,53.38-10.49c12.49,21.69,35.91,36.29,62.73,36.29c11.32,0,22.03-2.6,31.57-7.23
	c53.19-2.69,82.55-33.97,153.96-35.37c28.54-0.56,50.14,6.22,69.55,15.19c11.59,24.5,36.53,41.44,65.43,41.44
	c8.62,0,16.89-1.51,24.55-4.27c13.89-5.01,26.09-14.15,34.54-25.94V0.22H948.62z"/>
</svg>
